<?xml version="1.0" encoding="utf-8"?>
<!-- Generator: Adobe Illustrator 26.0.1, SVG Export Plug-In . SVG Version: 6.00 Build 0)  -->
<svg version="1.1" id="Layer_2" xmlns="http://www.w3.org/2000/svg" xmlns:xlink="http://www.w3.org/1999/xlink" x="0px" y="0px"
	 viewBox="0 0 483.8 573.3" style="enable-background:new 0 0 483.8 573.3;" xml:space="preserve">
<style type="text/css">
	.st0{fill:none;stroke:#333333;stroke-width:4;stroke-linecap:round;stroke-linejoin:round;}
	.st1{fill:none;stroke:#333333;stroke-width:2;stroke-linecap:round;stroke-linejoin:round;}
</style>
<g>
	<path class="st0" d="M148.4,240.9c0,0,20.6,19.3,14.5,27.5s-47.9,50.3-35,79c12.9,28.7,73.4,129.5,99.2,141.8s82.7,12.8,111.5-4
		c28.8-16.8,56.8-60.9,54.2-84.2c-2.6-23.3-41.5-149.2-69.4-172c-28-22.8-62.7-3.1-74.6-9.8c-11.9-6.7-19.2-24.9-19.2-24.9"/>
	<path class="st0" d="M160.7,239.3c0,0,15.7,18.6,13.5,27.5c-4.1,16.5-46,55.8-34.6,79.6c12.1,25.3,66.5,115,89.9,125.9
		c23.4,10.9,75,11.4,101.1-3.6c26.1-15,51.5-54.1,49.1-74.8c-2.3-20.7-37.6-132.6-63-152.8c-25.4-20.3-62.4-4.1-73.2-10.1
		c-10.8-6-20.7-27.5-20.7-27.5"/>
	<path class="st0" d="M363.8,387.1c2,18-20,52-42.7,65s-67.6,12.6-87.9,3.1c-11.7-5.4-20.6-19.3-28.1-29.2
		c-5.7-7.6-11.1-15.4-16.4-23.4c-4.4-6.6-9.7-14.8-6.2-23c1.9-4.3,6-7.6,10.6-8.3c-12.6-11.2-19.7-28-21.2-44.7
		c-1.6-18.3,4.4-38.1,18.2-50.6c13.7-12.3,30.4-21.6,48.7-23.6c14.5-1.6,29.2,2.7,41,11c6,4.2,11.3,9.5,15.5,15.5
		c5,7.1,6.6,17.3,9.2,25.6c1.3-5.8,7.8-10.6,13.7-11.2c5.5-0.5,10.9,2.4,14.7,6.4c3.8,4.1,6.1,9.2,8.2,14.3
		C351.1,338.7,360.9,360.7,363.8,387.1z"/>
	<path class="st0" d="M175.4,341.8c-4.9,0.2-9.2,3.8-11,8.3c-1.8,4.5-1.2,9.7,0.7,14.2s5.1,8.3,8.5,11.7c-5.3-0.6-10.9,1-15.1,4.3"
		/>
	<path class="st0" d="M300,290.7c3.2-3.8,7.9-6.3,12.9-6.7c4.9-0.4,10,1.2,13.8,4.4c-0.1-3.4,1.6-6.8,4.4-8.6
		c2.8-1.9,6.6-2.2,9.7-0.8"/>
	<path class="st1" d="M170,251.2c12.1,2.3,25.4-1.8,36.1-8c10.7-6.2,19-16.4,23-28"/>
	<path class="st0" d="M131.4,208c-5.5,3.6-11.2,7.4-14.6,13.1c-3.4,5.7-3.8,13.7,0.9,18.3c4.5,4.4,11.6,4.2,17.9,3.4
		c38.3-5.2,74.4-25.3,98.9-55.2c3.2-3.9,6.3-8.1,7.6-12.9c1.4-4.8,0.7-10.5-2.7-14.1c-3.2-3.4-8.4-4.4-13-3.7
		c-4.6,0.7-8.9,2.7-13.1,4.8"/>
	<path class="st0" d="M133.6,216.8c34.5-2.9,67.4-21.3,87.9-49.2"/>
	<path class="st1" d="M107.7,162.8c22.9-3,44.7-13.2,61.6-28.9"/>
	<path class="st0" d="M138.4,215.1c-9.8-11.6-19.5-23.2-29.3-34.9c-4.7-5.6-9.7-12-9.6-19.3c0.1-6,3.6-11.4,7.3-16.1
		c15-18.8,36.2-32.5,59.4-38.6c7.4-1.9,16.2-2.8,22,2.2c3.3,2.9,5,7.1,6.6,11.2c7,18,14,36.1,20.9,54.1"/>
	<path class="st0" d="M338.4,395.9c-0.8-0.1-1.4-0.9-1.3-1.7c0-0.1,0-0.1,0-0.2c0.3-0.8,1-1.4,1.9-1.7c0.8-0.2,1.7-0.3,2.6-0.4
		c1.8-0.2,3.5-0.9,4.9-1.9c1.3-0.9,2.2-2.3,2.5-3.8c0.4-1.3,0.6-2.6,0.8-3.9c0.1-3.4-1.6-5.4-4.4-6.6c-3.2-1.4-6.4-0.5-7.7,2.9
		c-1.6,4.3-4.7,5.6-8.8,6.5c-10.8,2.4-21.5,5.4-32.3,7.8c-17.3,3.8-34.7,7-52.5,7.9c-6.2,0.2-12.5-0.2-18.6-1.1
		c-2.1-0.2-3.4-1.5-4.4-3.4c-2.5-4.6-7.1-6.5-12.3-5.1c-4.2,1.1-6.4,6.9-3.9,10.4c1.1,1.4,2.7,2.5,4.4,2.9c2.3,0.6,6.1,0,8,1.9
		c0.6,0.6,0.7,1.6,0.2,2.2"/>
	<path class="st0" d="M205.6,337.4c-7.5,9.9-5.6,24.1,4.4,31.6c1,0.8,2.1,1.4,3.2,2c5,2.7,9.7,8.3,12.6,13.1
		c4,6.6,14.4,2.3,17.5-2.9c1.5-2.6,2.3-5.6,3.7-8.3c1.4-2.7,3.4-5.3,6.4-6.1"/>
	<path class="st0" d="M254.7,446.2c-4.4,0-8.8,1.2-13.3-0.6c-4.8-1.9-7-5.6-5.6-10.2c1.5-4.4,6.2-6.8,10.7-5.4c0,0,0,0,0.1,0
		c2.5,1,4.9,2.1,7.2,3.4c6.1-6.7,11.4-14,15.9-21.8c21.9-1.9,43.8-5.3,65-12.1c0.3-0.1,1.3,4,1.4,4.4c0.3,1.7,1.2,3.1,2.6,4.1
		c2.5,1.6,6.5,0.7,9-0.7c1.9-0.9,3.2-2.7,3.7-4.7c0.2-1.6-0.2-3.2-1.1-4.5c-1.6-2.4-3.5-4.6-5.5-6.6"/>
	<path class="st0" d="M318.4,337.1c-1.6-1-1.7-2.9-2.7-4.3c-2.2-3.1-5.9-4.3-8.7-2.9c-4.1,2.1-4.2,8.3-1.6,11.5
		c1.1,1.2,2.1,2.4,3,3.8c1.5,2.8-0.4,5.2-1.8,7.6c-4.2,7.5-8.4,15-12.8,22.4c-2,3.4-3.7,7-6,10.1l-7.8,11.1"/>
	<path class="st0" d="M240.4,370.5c5.5-8.5,5.6-17.7,2-26.8c-1.9-4.8-5.9-5.2-9.2-1c-3.8,4.6-6.4,10.1-7.7,16
		c-0.9,4.5-2,11.4,1.2,15.3c1.4,1.7,4.6,2.1,6.6,1.9C236.5,375.6,238.8,373,240.4,370.5z"/>
	<path class="st0" d="M259.6,297.3c-1-3.6-2-7.3-2.9-11c-1.4-5.6-3.3-6.6-8.3-4.1c-19.8,10.1-37.2,23.1-51,40.6
		c-2.4,3.1-4.5,6.5-6.6,9.6c2.7,5.3,8,4.7,12.4,6c0.5,0.1,1.6-0.7,2.3-1.5c8.5-9.1,17.9-17.3,28-24.6c5.3-3.7,10.9-7,16.7-9.9
		c4.8-2.4,10.1-4.3,15.5-3.6c7.4,0.8,14,5.4,18.5,11.2c2.3,2.9,4,6.3,5.1,9.8c1.3,4.2,1.4,8.6,3,12.8c0.3,0.8,0.7,1.7,1.1,2.5
		c1.3,2.6,2.9,5.3,2.6,8.2c-0.3,2.1-1.4,3.9-3,5.3c-2.7,2.4-6.3,4.3-10,4.3c-3.6,0-6.9-2.6-10.8,0.9"/>
	<path class="st0" d="M300.1,392.2l10.2-17.6c3.4-5.9,5.7-12.3,10-17.7c0.5-0.7,1.1-1.4,1.8-1.9c2.6-1.7,6.2-1.3,8.9-3.1
		c2.7-1.8,3.9-4.4,4.4-7.3c0.8-3.8-2.4-9.2-6.2-10.3c-4.5-1.4-12,0.9-11.2,6.8c0.2,0.7,0.3,1.4,0.2,2.1c-0.1,0.7-0.6,1.4-1.3,1.7
		c-0.7,0.3-1.5,0.2-2.1-0.2"/>
	<path class="st0" d="M211.8,406.2c-0.8,0.9-1.6,1.8-2.3,2.7c-2.7,3.9-2,8.2,1.7,10.5c3.9,2.5,8.3,1.6,10.7-2.3
		c0.5-0.8,0.1-2,0.2-2.7c16.5-0.5,33.1-0.8,49.4-3"/>
	<path class="st0" d="M239.5,286.2c-3.2-6.2-9.3-8.4-17.3-8c-11.9,0.6-25.7,15-25,26.7c0.3,4.4,1.2,8.5,4.8,11.6"/>
	<path class="st0" d="M279.1,326.8c5.8,2.9,8.2,10,5.3,15.8c-0.2,0.3-0.3,0.7-0.5,1c-2.1,3.1-5.2,3.7-8.3,3c-8-2-15.1-6.6-20.1-13.1
		c-3.4-4.2,2.3-7.8,5.8-8.7C267.3,323.3,273.6,324,279.1,326.8z"/>
	<path class="st0" d="M257.7,436.9c2.6,3.3-0.8,5.6-2.1,8.5c-1.6,3.3-0.4,6.5,1.4,9.5c1.8,2.9,4.6,4.7,8,3.7c3.4-1,6.3-3.1,6.8-7
		c0.3-2.7-0.7-5.4-2.8-7.3c-3.3-2.7-2.7-4.5-0.3-7.2c7.3-8.1,13.8-16.9,19.4-26.3"/>
	<path class="st0" d="M32.7,168c-3.1,3-3.7,5.7-1.4,8.5c1.8,2.2,4.2,3.2,7,1.7c2.7-1.3,4-4.4,3-7.2c-0.8-2.9-3.8-4-7.8-3.3"/>
	<path class="st0" d="M250.8,369.5c1.7,1.8,2.9,3.9,3.7,6.2c0.7,2.5-0.3,5.2,0.7,7.7c1.2,2.8,4.3,4.3,7.3,3.7c4-1,4.5-4.7,4.9-8.2"
		/>
	<path class="st0" d="M265.6,362.2c0.3,0.1,0.5,0.2,0.8,0.2c1.8,0.1,2.6-1.5,2.4-3c-0.5-4.6-6.9-8.3-10.9-9.4
		c-0.5-0.2-1.1-0.2-1.7,0c-1.9,1-0.8,4.4-0.5,6.1c0.6,2.9,3,10.4,7.1,9.8c1.3-0.2,2.2-1.5,2-2.9c0,0,0-0.1,0-0.1
		c-0.2-0.8-0.5-1.6-1-2.3C264.2,361.3,264.8,361.8,265.6,362.2z"/>
	<path class="st0" d="M276.8,369c-0.8,1.3-0.4,3,0.1,4.4c0.5,1.4,1.2,2.9,0.9,4.4c-0.4,1.6-1.6,2.8-3.1,3.2
		c-1.5,0.4-3.2,0.2-4.5-0.5c-2.4-1.1-4.2-3.3-4.8-5.9"/>
	<path class="st0" d="M475.6,354.4c-3.4,3.6-4.2,8.5-6.6,12.6"/>
	<path class="st0" d="M469.8,368.7c4.1,0.1,8.2,1.7,12.4,1"/>
	<path class="st0" d="M469,370.2c2,3,4,5.9,6,8.9"/>
	<path class="st0" d="M463.8,359.8c1.7,3,2.7,6.3,5,8.9l-5.2,11.4"/>
	<path class="st0" d="M457.8,367.5c3.2-0.1,6.3,1.1,9.5,0.4"/>
	<path class="st0" d="M152.3,334.1c-2.7,5.2-1.9,8.2,2.3,9.7c2.7,1,4.8,0.8,6.9-1.8c2.3-2.9,1.3-5.4-0.4-7.7
		c-1.7-2.3-4.2-2.5-6.8-1.3l-1.7,0.8"/>
	<path class="st0" d="M389.6,245c-3.5,5.5-2.1,10.3,3.3,10.7c2.5,0.4,5-0.9,6.2-3.1c1.2-2.4,0.8-5.2-1.1-7.1c-2.2-2.4-5.1-2.7-8-0.7
		"/>
	<path class="st0" d="M59.2,199.2c-3.4,2.6-5.3,6-4.1,10.3c1.2,4.1,4.3,6.2,8.4,6.6c4.5,0.4,8.9-4,9.1-8.7c0.1-4.7-3.7-9.3-8.3-9.3
		c-1.6,0.1-3.2,0.4-4.8,0.8"/>
	<path class="st0" d="M313.9,264.3c-3.8,5.5-4.2,8.8-1.2,12c3.6,3.8,7.3,4.4,11.6,1.4c3.2-2.5,4.3-6.9,2.5-10.5
		c-2.4-4.2-6.7-5.5-11.2-3.7c-0.4,0.2-0.8,0.4-1.2,0.6"/>
	<path class="st0" d="M293.2,249.9c-3.6,4.3-3.3,9,0.9,9.9c2.8,0.6,5.4-0.2,6.6-3.3c1.2-3.1-0.5-4.9-2.7-6.3
		c-1.3-0.9-2.9-1.1-4.3-0.5"/>
	<path class="st0" d="M441.6,301.1c-2.9,3.2-3.6,6.4-1.6,8c1.7,1.5,4.1,1.9,6.2,1c1.9-0.8,3.1-2.9,2.7-4.5c-0.4-1.9-1.1-4.3-3.7-4.8
		c-1.1-0.2-2.1-0.5-3.1,0"/>
	<path class="st0" d="M276.7,352.5c-0.1,2.4,1.8,4.4,3.9,5.7s4.3,2.3,5.8,4.2c2.4,3,1.8,7.3-1.2,9.7c-2.4,1.9-5.8,2-8.3,0.2"/>
	<path class="st0" d="M204.9,107.5c-0.2,2.1-0.9,4.1-1.3,6.2s-0.6,4.3,0.2,6.2c0.8,1.9,2.5,3.2,3.9,4.7c1.4,1.5,2.6,3.5,2.2,5.5
		c2.4-0.7,5.1,0.5,6.9,2.3s3,4.1,4.4,6.2c1.4,2.1,3.2,4.2,5.6,5c3.1,1.1,6.8-0.2,8.5-3c1.1-1.9,1.3-4.2,1.8-6.4
		c0.4-2.2,1.2-4.5,3.1-5.7c2.7-1.7,6.8-0.7,8.7-3.1c1.4-1.7,0.9-4.3,0-6.3c-2.6-5.6-8.3-9.6-14.5-10.1c0.3-1.8-0.6-3.7-1.9-5.1
		s-3-2.2-4.6-3.1c-3.2-1.7-7-3.5-10.4-2.3c-1.9,0.7-3.4,2.2-5.2,3.2c-2,1.1-3.9,1.3-6.1,1.4c-1.2,0.1-1.4-0.2-1.5,1
		C204.4,105.1,204.9,106.3,204.9,107.5z"/>
	<path class="st1" d="M204.6,103.2c6.4,4.1,12.6,8.5,18.6,13.2c3,2.4,6,4.8,8.9,7.3c2.4,2,3.7,4.5,6.9,5.4"/>
	<path class="st1" d="M234.8,107.9c-3.2,5.2-3.7,11.9-1.2,17.5"/>
	<path class="st1" d="M216.6,99.5c1.9,4,2.8,8.6,2.6,13"/>
	<path class="st1" d="M203.6,115.9c5.7,1.6,11.9,1.6,17.6-0.1"/>
	<path class="st1" d="M215.7,131.1c6.1-0.6,12-2.8,17-6.3"/>
	<path class="st0" d="M287.3,15.8c-1.6,1.8-3.6,3.1-5.4,4.6c-1.8,1.5-3.5,3.4-4,5.7c-0.5,2.3,0.1,4.7,0.4,7c0.3,2.3,0,5-1.7,6.5
		c2.8,1.1,4.4,4.1,4.9,7s0,5.8-0.1,8.7c-0.1,2.9,0.1,6,1.7,8.5c2.1,3.2,6.5,4.6,10,3.3c2.4-0.9,4.1-2.8,6-4.5s4.2-3.2,6.8-2.9
		c3.6,0.4,6.7,4.2,10.3,3.4c2.5-0.6,3.8-3.2,4.3-5.7c1.4-6.9-1.2-14.5-6.6-19.3c1.5-1.5,2-3.8,1.7-5.9c-0.3-2.1-1.2-4.1-2.2-6.1
		c-1.8-3.9-4.1-8.1-8.1-9.5c-2.3-0.8-4.7-0.5-7-0.8c-2.6-0.4-4.5-1.6-6.7-3c-1.2-0.8-1.2-1.1-2.1-0.2
		C288.6,13.4,288.2,14.8,287.3,15.8z"/>
	<path class="st1" d="M290,11.8c3.1,8.2,5.9,16.6,8.3,25c1.2,4.3,2.4,8.6,3.4,12.9c0.8,3.5,0.3,6.6,2.8,9.7"/>
	<path class="st1" d="M315,37.4c-6.5,2.4-11.6,8.1-13,14.9"/>
	<path class="st1" d="M303.7,16.9c-1,5-3.2,9.7-6.5,13.5"/>
	<path class="st1" d="M280.4,22.4c4.2,5.5,10,9.9,16.4,12.4"/>
	<path class="st1" d="M281.3,44.7c6,3.8,13,6,20.1,6.4"/>
	<path class="st0" d="M264,74.5c2.1-2.1,3.3-5,4-7.9c2.3-9.1,0.5-18.9-4.1-27.1c-4.6-8.2-11.7-14.7-19.8-19.5s-17-7.9-26-10.3
		c10.8,13.2,18.6,28.8,22.6,45.4c1.1,4.6,2,9.6,4,13.9c1,2.3,2.6,5.1,4.5,6.7C253.5,79.3,260.3,78.3,264,74.5z"/>
	<path class="st0" d="M241.7,60.6c-5.5-1.1-10.3-2.2-16-1.5c-5.9,0.7-11.7,2-17.6,2.2c-5.1,0.2-10.4-1.2-15.1-3
		c-2.4-0.9-4.6-2.1-6.8-3.4c-1.3-0.9-5.1-3-5.6-4.5c3.1,10.6,9.1,20.3,17.2,27.8c8.5,7.9,22.4,17,34.5,14.4
		c4.1-0.9,7.7-3.3,10.7-6.2c2.9-2.7,5.3-5.9,7.1-9.4"/>
	<path class="st0" d="M242,87.7c3,1.5,6.1,2.7,9.4,2.9s6.8-0.6,9.3-2.8c3.4-2.9,4.5-8,2.8-12.1"/>
	<path class="st0" d="M218.9,32c-0.9-2.8-1.9-5.7-3.5-8.2c-1.6-2.5-3.8-4.8-6.6-5.8c-2.8-1-6.2-0.5-8.3,1.7c-1.9,2-2.4,5.2-1.7,7.9
		s2.4,5.1,4.2,7.2c-2.2-1-4.4-2-6.8-2.4c-2.4-0.4-5-0.1-6.9,1.4c-2.7,2-3.4,6-2.2,9.1c1.2,3.1,4,5.5,7.1,6.8
		c3.1,1.3,6.5,1.7,9.9,1.8c5.5,0.3,11.4-0.1,16.3-2.9c3.5-2,3.1-3,1.9-6.6C221.1,38.7,220,35.4,218.9,32z"/>
	<path class="st0" d="M204.3,41.5c-0.7-1-1.4-2.1-1.6-3.3c-0.2-1.2,0-2.6,0.8-3.5c1.3-1.5,3.6-1.4,5.5-1c3.5,0.8,6.8,2.5,9.5,4.9
		c1.5,1.4,6.5,6.4,4.9,8.6c-1.6,2.2-8.1,0.9-10.2,0.3C209.6,46.5,206.4,44.4,204.3,41.5z"/>
	<path class="st0" d="M200,51.7c2.3,2.9,4.7,5.8,7,8.8"/>
	<path class="st0" d="M223.4,48.1c4.7,1.7,8.6,5.4,10.5,9.9"/>
	<path class="st0" d="M216.1,24.7c4.6,1.6,9.5,2.6,14.4,2.9"/>
	<path class="st0" d="M234.7,157.4c1.9-5.1,3.9-10.3,6.7-15s6.7-8.9,11.7-11.3c5.9-2.8,12.7-2.9,19.2-2.1c6.5,0.8,12.9,2.4,19.4,2.7
		c6.5,0.3,13.4-1,18.4-5.2c-2.7,2.2-4.8,4.2-4.4,8.1c0.4,4.2,2.5,8,5,11.3c3.1,4.1,6.9,7.7,9.8,11.9c4.3,6.3,6.7,13.9,6.5,21.5
		c-0.2,7.6-2.8,15.2-7.4,21.2c-5.3,7-13.4,12.9-21,17"/>
	<path class="st1" d="M307.8,128.2c-28.2,23.4-48.7,55.6-60.1,90.6"/>
	<path class="st1" d="M275.2,129c-8.3,10.5-9.5,26-3.1,37.7"/>
	<path class="st1" d="M251.9,131.4c-6.8,21.3-5.8,45,3,65.5"/>
	<path class="st1" d="M263.1,182.4c6.6-8.2,17.2-11.8,27.4-14.5s20.8-5.2,28.9-12"/>
	<path class="st1" d="M255.9,201.1c24.7-0.4,49.2-6.7,71.1-18.1"/>
	<path class="st0" d="M259.4,89.3c4.7,12.2,7.4,25.2,8.1,38.2"/>
	<path class="st0" d="M301.9,59.6c3.3,7.8,2.1,16.8-1.1,24.6c-3.2,7.8-8.2,14.7-12.9,21.7c-4.6,7-9,14.5-10.6,22.7"/>
	<path class="st0" d="M324.7,166.4c12.1-8.6,22.3-19.9,29.7-32.8c-2.1,18.8-12,36.6-27,48.2"/>
	<path class="st0" d="M324.2,193.7c6.3-2.5,13.3-1.1,20-0.5c6.7,0.6,14.5-0.1,18.7-5.3c-4,7.3-4.2,16-6.5,23.9
		c-3.5,12.3-12.5,22.9-24,28.5"/>
	<path class="st1" d="M361.9,191C348,204,332.1,214.8,315,223.1"/>
	<path class="st0" d="M98.6,441.6c-16.8-4.7-36.1,3.9-40,21.8c-2.5,11.4,2.5,22.7,13,27.9c7.8,3.8,16.6,4.7,24.7,7.6
		c8.6,3.2,16,9.1,22.4,15.6c6.6,6.8,13.8,12.5,23.9,10.4c11.7-2.4,16.9-13.1,18.9-23.9c2.3-12.1-1.6-25-9.7-34.3
		c-1.2-1.4-2.6-2.7-4-4"/>
	<path class="st0" d="M154.3,399.9c-3.3,3.8-4.5,8.7-6.9,12.9c-1.7,3-4.3,5.5-7.4,7.1c-6.9,3.7-10.3,9.5-11.7,16.9
		c-1.3,6.8-0.3,13.5-0.2,20.3"/>
	<path class="st0" d="M176.3,432.3c-0.8,7.6-4.2,14.6-9.7,19.9c-5.3,5.2-12,8-18.9,9.7c-4.6,1.1-9.5,0.4-13.7-1.7
		c-4.9-2.8-10.2-2.8-15.2-4C101,452,89.9,434.3,94,416.5c0.9-3.9,2.5-7.6,4.7-10.9c1.7-2.6,3.4-4.8,3.8-8.1c0.3-2.6,2.6-4.5,4.4-6.4
		c7.4-8.3,17.2-11.9,27.9-13.5c2.1-0.3,4-0.9,6-1.4"/>
	<path class="st0" d="M162.7,487.7c7.2,3.5,14.2,7.2,22.4,7.1c7.6-0.1,14.7-3.4,20.2-8.5c2.9-2.7,4.5-7.3,5.7-11.4"/>
	<path class="st0" d="M103,399.7c3.4-1.9,6.7-3.8,10.1-5.6c1.9-1,3.8-1,4.3,1.4c3.1,15,16,19.8,26.5,13.6"/>
	<path class="st0" d="M130.5,379.2c-2.8,6.3-2.2,10,3,15c4.5,4.3,8.8,8.7,11,14.7c0.3,0.9,2,1.4,3,2.1"/>
	<path class="st0" d="M132.4,394.3c-4.9,1.9-7.8,5.6-9.9,10.1"/>
	<path class="st0" d="M74.7,441.9c-3.4-6.5-11.4-8.7-15-15.1c-4-7-1-16,3.2-22.2c3.6-5.3,9.1-8.6,15.1-10.5c5.1-1.6,7.1-4.3,7-9.7
		c-0.1-4.7-0.5-9,0.4-13.6c0.9-4.8,2.4-9.6,5-13.8c1.6-2.7,3.7-5.1,6.4-6.7c5.3-3.3,12.7-2.1,18.2,0.1c6.7,2.8,12.6,7.2,19.4,9.9"/>
	<path class="st0" d="M93.5,352.9c-7.9-2.4-14.9-7.7-19.2-14.8c-4.3-7-6-15.7-4.6-23.8c1.4-7.9,5.5-15.1,8.3-22.6
		c2.8-7.5,4.3-16.3,0.4-23.4c4.6,6.8,13.3,9.6,21.4,10.1s16.4-0.8,24.6,0s16.8,4.1,20.7,11.3"/>
	<path class="st1" d="M80.6,272.9c10,25.3,25.1,48.6,44.2,68.1"/>
	<path class="st1" d="M102.3,312.4c-3.8-10.8-2.5-23.2,3.4-33"/>
	<path class="st1" d="M119.2,335.1c-3.9-9.4-4.4-20.2-1.5-29.9c2.9-9.7,9.3-18.4,17.7-24.2"/>
	<path class="st1" d="M97.5,305.8c-5.5-6-13.7-9.4-21.8-9.2"/>
	<path class="st1" d="M114.5,330.4c-12.7-9.7-29.2-14.3-45.1-12.6"/>
	<path class="st0" d="M155.7,518.5c2.4,6.1,9.1,9.7,15.6,10.7s13.2,0.1,19.8,0.1s13.6,0.9,18.7,5.2c-2.6-1.2-4-4.2-4-7.1
		c0-2.9,1.2-5.6,2.7-8c1.4-2.5,3.1-4.8,4.3-7.4c3.7-8.3,1-19.1-6.2-24.6"/>
	<path class="st1" d="M205.3,531.4c-12.3-9.2-21.9-21.8-27.4-36.1"/>
	<path class="st1" d="M181.6,503.2c-4.3,7.8-6.3,17-5.5,25.9"/>
	<path class="st1" d="M181.1,501.6c11.1-1.3,22.5,0.3,32.9,4.4"/>
	<path class="st0" d="M57.7,423.2c-2.8-1.1-5.6-2.2-8.5-2.6c-3-0.4-6.1,0.1-8.5,2c-3.6,2.8-4.4,7.7-5.7,12
		c-3.3,10.3-11.7,19-21.9,22.6c5.8,0.3,11.4,2.5,15.8,6.2c3.7,3.2,6.5,7.3,9.5,11.2c2.9,3.9,6.2,7.8,10.5,10.1s9.9,2.8,14,0.1"/>
	<path class="st1" d="M15.9,456.7c9.8-2,18.9-6.4,28.4-9.8c9.4-3.4,19.7-5.7,29.4-3.2"/>
	<path class="st1" d="M57.3,442.5c-8.6-2-16-8.4-19.2-16.6"/>
	<path class="st1" d="M60.6,443.7c-9.5,10.3-15.6,23.7-17.1,37.6"/>
	<path class="st0" d="M85.1,367.8c-27.2-4.7-53.5-14.3-77.3-28.2c26.3,2.1,53.3,4.7,79,10.3"/>
	<path class="st0" d="M49.4,419.3c-15.2-7.1-29.1-16.8-41.1-28.5c18.7-0.1,37.4,5.1,53.4,15"/>
	<path class="st0" d="M138.3,525.1c1.1,12.2,4.9,24.1,11.1,34.7c1.4-5.9,4.2-11.4,6.3-17.1c2.1-5.7,3.6-11.9,2.2-17.8"/>
</g>
</svg>
