<svg xmlns="http://www.w3.org/2000/svg" viewBox="0 0 621.63 553.38"><g id="Layer_2" data-name="Layer 2"><g id="Layer_1-2" data-name="Layer 1"><path d="M489.38,406.56c-5.78,9.36-15.72,13.68-24.49,18.93-23.81,14.28-48,27.89-72.42,41.15-17.88,9.71-36.22,18.59-54.49,27.56-22.15,10.89-44.14,22.18-66.77,32-20.17,8.75-40,18.39-61.55,23.89-11.34,2.9-14.59,1.27-21-8.4-13.84-21-25.37-43.32-38.13-64.93-10.76-18.24-20.42-37.14-30.08-56C109,398.28,98,375.58,86.91,352.9c-2.26-4.62-3.64-9.66-5.77-14.36-3-6.59-.64-10.45,5.22-14.14,18.92-11.92,38.53-22.54,58.4-32.77,13.05-6.72,25.68-14.26,38.69-21.05,17.32-9,34.81-17.77,52.28-26.52,15-7.54,30.45-14.39,45.15-22.54,19.28-10.68,40.17-17.86,59.46-28.49,6.6-3.63,14.16-5.55,21.33-8.08,5.55-2,10.08.46,12.82,4.87q24.67,39.75,48.63,80c7.05,11.9,12.66,24.45,19.55,36.44,4.7,8.16,9.67,16.18,14.22,24.43,4.65,8.42,8.07,17.48,13,25.73a231.33,231.33,0,0,1,19.78,42.82,8,8,0,0,1,.07,6.21" style="fill:none;stroke:#333;stroke-linecap:round;stroke-linejoin:round;stroke-width:4px"/><path d="M314,382.69c40.35,4.87,80.73,9.54,121,14.7,18.05,2.31,36,5.59,54,8.43" style="fill:none;stroke:#333;stroke-linecap:round;stroke-linejoin:round;stroke-width:2px"/><path d="M427.79,170.79a52,52,0,0,0,6.94-4.39c13.08-9.84,23-26.08,19.59-42.84C451.4,109.09,440.16,97,427,90.91c-6.32-2.88-12.82-5.33-20.17-5.32-18.21,0-34.68,16.11-35.62,34.39" style="fill:none;stroke:#333;stroke-linecap:round;stroke-linejoin:round;stroke-width:4px"/><path d="M270.42,400.76c-11,22.29-22.09,44.55-33,66.89q-15.33,31.41-30.29,63c-3,6.4-7.36,12.33-8.06,19.7" style="fill:none;stroke:#333;stroke-linecap:round;stroke-linejoin:round;stroke-width:2px"/><path d="M386.72,206.59c14.32-12.48,17.31-24,11-39-5.44-12.8-15.91-18.76-28.51-18.82-12.23-.05-22.58,6.37-28.23,17.92-4,8.1-4.58,16.67-.29,25.07" style="fill:none;stroke:#333;stroke-linecap:round;stroke-linejoin:round;stroke-width:2px"/><path d="M83.27,331.32c47.37,12.07,94.85,23.65,142.59,34.17,2.2.49,4.76,1.91,7.24.42" style="fill:none;stroke:#333;stroke-linecap:round;stroke-linejoin:round;stroke-width:2px"/><path d="M370,186.5c-10.32,16.29-17.07,34.33-25.1,51.73-13.78,29.83-27,59.9-40.5,89.86" style="fill:none;stroke:#333;stroke-linecap:round;stroke-linejoin:round;stroke-width:2px"/><path d="M370.92,120.82c1.31-9.46-3.28-16.53-11-21.57-12.14-8-25.79-12.72-39.66-5.94-20.07,9.82-38,35.22-24.48,57a41.53,41.53,0,0,0,4.3,5.83,35.49,35.49,0,0,0,3.62,3.53" style="fill:none;stroke:#333;stroke-linecap:round;stroke-linejoin:round;stroke-width:4px"/><path d="M369.7,104.39c4.89-6,3.59-14.06,7.54-20.55,12.25-20.11,28.87-26.14,52.41-18.17,19.33,6.55,34.17,19.38,42.69,38.48,5.68,12.74,4,27-.53,39.84" style="fill:none;stroke:#333;stroke-linecap:round;stroke-linejoin:round;stroke-width:4px"/><path d="M428.86,171.11c14.33,3.58,28,13.26,32.46,27.77,4.23,13.67-1.3,28.59-10.42,39-8.77,10-26.11,19.34-39.21,11.63" style="fill:none;stroke:#333;stroke-linecap:round;stroke-linejoin:round;stroke-width:4px"/><path d="M364.31,102.37c-1.45-10.27-6-18.46-14.69-24.66-10.14-7.26-20.83-11.79-33.54-10.61-20.54,1.9-44.85,21-47.54,44.88-1,8.44-1.45,15.43,1.9,23.41,3.07,7.28,6.53,12.66,12.66,17.64" style="fill:none;stroke:#333;stroke-linecap:round;stroke-linejoin:round;stroke-width:4px"/><path d="M311.83,163.81c-13.23-9-25.71-4.8-36.76,3.56-13.69,10.37-16.77,25-12.48,41.21,1.64,6.16,7,10,11,14.63" style="fill:none;stroke:#333;stroke-linecap:round;stroke-linejoin:round;stroke-width:4px"/><path d="M439.11,173.2c15.58,2,35.2,8.56,42.94,22.77,7.19,13.21,5.93,29.19-.38,42.47A59.05,59.05,0,0,1,466.5,258a42.43,42.43,0,0,1-21.1,9.72c-8,1.3-17.16,1.93-24.49-1.95" style="fill:none;stroke:#333;stroke-linecap:round;stroke-linejoin:round;stroke-width:4px"/><path d="M233.83,236a25,25,0,0,1-3.37,2.4c-9.75,4.81-19.93,8.61-29.06,14.8-4.83,3.28-11,4.64-16.5,6.87" style="fill:none;stroke:#333;stroke-linecap:round;stroke-linejoin:round;stroke-width:4px"/><path d="M417,145.43c5.81-4.25,10.18-9.3,8.23-17.16-1.62-6.54-9.87-13.59-16.93-13.58-7.75,0-10.4,6.06-12.11,12.51" style="fill:none;stroke:#333;stroke-linecap:round;stroke-linejoin:round;stroke-width:2px"/><path d="M462.77,340.67C483.48,354.43,505.23,365,529.35,371,508.57,354,488,333.84,478.64,307.87" style="fill:none;stroke:#333;stroke-linecap:round;stroke-linejoin:round;stroke-width:4px"/><path d="M130.68,219.46c4,12.95,16.47,21.37,29.86,18.36,15.76-3.54,31.19-8.61,46.76-13" style="fill:none;stroke:#333;stroke-linecap:round;stroke-linejoin:round;stroke-width:4px"/><path d="M304.72,328.83c10.72,6.15,12.92,16.22,12.45,27.4-.79,18.51-8,34.68-18.66,49.73-19.11-3.49-37.59-9-53.7-20.4-10.71-7.59-13.66-21.95-6.94-30.77,6.44-8.43,22.21-11.14,31.51-5.4,2,1.23,3.95,2.48,6.36,4,4.94-13.45,10-26.63,27.9-24.95" style="fill:none;stroke:#333;stroke-linecap:round;stroke-linejoin:round;stroke-width:4px"/><path d="M346.35,125.75c-1.15-7.72-6.41-11.28-13.42-11.61-6.41-.3-10.72,4.15-13.36,9.58-2,4.07-2.13,10.41,1,14a9,9,0,0,0,6.05,3" style="fill:none;stroke:#333;stroke-linecap:round;stroke-linejoin:round;stroke-width:2px"/><path d="M428.28,269.62a113.24,113.24,0,0,0,21.13,19.72,148.2,148.2,0,0,0,27.07,15.44,204.19,204.19,0,0,0,22.57,8c7.56,2.28,15.17,2.24,23,3.29a104.6,104.6,0,0,1-18-11c-5.41-4.11-10.84-8.05-16.21-12.21a121.53,121.53,0,0,1-27.91-30.49" style="fill:none;stroke:#333;stroke-linecap:round;stroke-linejoin:round;stroke-width:4px"/><path d="M3.35,206.8c7.25,5.68,14.63,4.41,15.75-2.7.85-5.36-2-9.27-7.27-10.11-6.34-1-8.48,3-9.7,8-.33,1.36.07,2.9.14,4.36" style="fill:none;stroke:#333;stroke-linecap:round;stroke-linejoin:round;stroke-width:4px"/><path d="M425.16,200.71c5.86,1.95,12.08,3.92,13.66,10.73,1.2,5.21-1.44,9.94-5.51,13.13s-9,2.1-13.35-.1c-2.11-1.08-3.81-3-5.69-4.5" style="fill:none;stroke:#333;stroke-linecap:round;stroke-linejoin:round;stroke-width:2px"/><path d="M552.16,352.06c-3.78,2.63-5.19,6.3-3.17,10.38a7.31,7.31,0,0,0,8.07,4.24c3.11-.67,6.08-2.22,7.17-5.81,1.69-5.55-2.12-9-10.58-9.49" style="fill:none;stroke:#333;stroke-linecap:round;stroke-linejoin:round;stroke-width:4px"/><path d="M152.87,170c16-8.47,29-5,38,11.32,4.39,7.94,8.48,15.95,14.18,23.06.58.71,0,2.36-.05,3.57" style="fill:none;stroke:#333;stroke-linecap:round;stroke-linejoin:round;stroke-width:4px"/><path d="M69.87,172.37c4.14-1.3,9.23-1.25,13.56-1.79,6.13-.77,12.21-2.25,18.43-1.86a39.65,39.65,0,0,1,18.78,6c4.58,2.91,10.21,7.55,9.17,13.67-1.56,9.24-9.18,12.41-17.67,11.35C94.23,197.55,81.53,185.07,69.87,172.37Z" style="fill:none;stroke:#333;stroke-linecap:round;stroke-linejoin:round;stroke-width:4px"/><path d="M112.76,201.69c4.54,11.76,12.46,17.18,24.17,15.74s23.84-2.54,34.88-7.76" style="fill:none;stroke:#333;stroke-linecap:round;stroke-linejoin:round;stroke-width:4px"/><path d="M308.61,182.26c-5.05.9-10.08,2.31-12.91,6.86-4,6.44-2,13.71,5,20.88" style="fill:none;stroke:#333;stroke-linecap:round;stroke-linejoin:round;stroke-width:2px"/><path d="M155.4,240.38c6.49,9.7,13.61,18.22,26.58,19.45,2.65.25,5,4,7.43,6.19" style="fill:none;stroke:#333;stroke-linecap:round;stroke-linejoin:round;stroke-width:4px"/><path d="M354.26,78.34c-.62-9.52-1.32-18.24.13-27.71,1.31-8.47,6.2-16.34,9.82-24.1s7.32-16,6.55-24.53c.45,4.94,5.91,11.79,8.67,15.76,3.23,4.65,7.43,8.17,10.57,12.91a58.58,58.58,0,0,1,9.74,33.21" style="fill:none;stroke:#333;stroke-linecap:round;stroke-linejoin:round;stroke-width:4px"/><path d="M118.93,172.06c11-6.29,24-6.37,33-.21,8.59,5.88,16.35,15.23,21.4,25.5" style="fill:none;stroke:#333;stroke-linecap:round;stroke-linejoin:round;stroke-width:4px"/><path d="M556.27,183.15c-16.36-5.13-39.85-8.05-56.89-9.26-19-1.34-38.05-1.37-57.08-2.18" style="fill:none;stroke:#333;stroke-linecap:round;stroke-linejoin:round;stroke-width:2px"/><path d="M94.57,181.37c13.19,3.43,26.37,5.88,39,11,26.34,10.64,53.1,20.49,79.15,31.81a200.19,200.19,0,0,1,28.8,15" style="fill:none;stroke:#333;stroke-linecap:round;stroke-linejoin:round;stroke-width:4px"/><path d="M142.51,194.4c3.43-3.11,6.9-1.22,10.59-.42,24.69,5.4,48.49,13.5,72,22.59,5.18,2,10.08,4.34,16.62,4,5.88-.35,11.27,6.08,15.93,10.84" style="fill:none;stroke:#333;stroke-linecap:round;stroke-linejoin:round;stroke-width:4px"/><path d="M315.49,203.26c-12.11-25.78-.68-59.23,24.88-73,14.8-7.95,29.93-10.41,46.44-4.33,20.26,7.47,32.25,20.69,38.15,41.84,5.37,19.27-4.45,50.24-24.49,61.13" style="fill:none;stroke:#333;stroke-linecap:round;stroke-linejoin:round;stroke-width:4px"/><path d="M358,39.2c-4.09-10.32-7.68-19.2-13.6-28.58l-2.6,33.75c-.77,9.91-.4,20.27,3.05,29.74" style="fill:none;stroke:#333;stroke-linecap:round;stroke-linejoin:round;stroke-width:4px"/><path d="M297.75,158c-21.31-10.76-47.93-.8-59.09,19.72-7.27,13.37-6,30.82,3.08,42.82" style="fill:none;stroke:#333;stroke-linecap:round;stroke-linejoin:round;stroke-width:4px"/><path d="M428.78,171.35c4.9-2.07,10.33.78,15.39-.39,6.35-1.47,12-9,16.35-13.5,5.53-5.8,9.86-12.55,15.2-18.43,4.8-5.3,12.46-6.68,19.28-6.47,13,.4,26,4.21,34.81,14.35,4.92,5.69,7.16,12.63,11,19a63.16,63.16,0,0,0,16.9,18.36c-1.34-1-7.81,2.09-9.19,2.7a35.06,35.06,0,0,0-8.95,5.77c-5.67,5.08-11.36,10.21-17.51,14.74-9.74,7.19-20,13.26-33.06,9.79" style="fill:none;stroke:#333;stroke-linecap:round;stroke-linejoin:round;stroke-width:4px"/><path d="M266.42,121c-9.81-8.53-20.88-14.43-34-15.76-3.15-.32-6.2-.07-9.5-.7-7.53-1.42-14-5.71-21.54-6.66L200,104.76c-2.92,15.48-5.05,30.29-.55,46.61,2.18,7.89,5.85,15.47,12,21.06,6.93,6.33,15.4,9.16,24.15,11.92" style="fill:none;stroke:#333;stroke-linecap:round;stroke-linejoin:round;stroke-width:4px"/><path d="M203.29,165c-6.67,1.82-13.92,1.2-20.19,4.72" style="fill:none;stroke:#333;stroke-linecap:round;stroke-linejoin:round;stroke-width:4px"/><path d="M597.57,275.07c-3.88,5-6.38,10.25-2.38,16.27,2.73,4.1,6,6.61,11.75,6.54,6.76-.08,8.84-4.12,11.3-8.91a10.94,10.94,0,0,0-2-13.31c-3.52-3.29-8.72-5.91-14.24-2.63a37.44,37.44,0,0,1-3.69,1.71" style="fill:none;stroke:#333;stroke-linecap:round;stroke-linejoin:round;stroke-width:4px"/><path d="M200.47,99.16c2.27,6.92,6.85,12.79,11.35,18.51,13.08,16.63,24.73,32.34,43,43.05" style="fill:none;stroke:#333;stroke-linecap:round;stroke-linejoin:round;stroke-width:2px"/><path d="M223.5,130.12a56.62,56.62,0,0,1,1.29-24.63l-.83.87" style="fill:none;stroke:#333;stroke-linecap:round;stroke-linejoin:round;stroke-width:2px"/><path d="M246.66,154.09a53.59,53.59,0,0,1,7.3-40.41" style="fill:none;stroke:#333;stroke-linecap:round;stroke-linejoin:round;stroke-width:2px"/><path d="M200.42,152.92a111.55,111.55,0,0,1,44.64,1.71" style="fill:none;stroke:#333;stroke-linecap:round;stroke-linejoin:round;stroke-width:2px"/><path d="M197.08,128.58a39.13,39.13,0,0,1,25.49,2" style="fill:none;stroke:#333;stroke-linecap:round;stroke-linejoin:round;stroke-width:2px"/><path d="M514.38,136.55a63.47,63.47,0,0,0-32.69,35.7" style="fill:none;stroke:#333;stroke-linecap:round;stroke-linejoin:round;stroke-width:2px"/><path d="M483.14,174.89A57.29,57.29,0,0,0,518.55,210" style="fill:none;stroke:#333;stroke-linecap:round;stroke-linejoin:round;stroke-width:2px"/><path d="M534.85,154.69a58.86,58.86,0,0,0-32.1,19.23" style="fill:none;stroke:#333;stroke-linecap:round;stroke-linejoin:round;stroke-width:2px"/><path d="M510.47,175.1a49.53,49.53,0,0,0,23.1,23" style="fill:none;stroke:#333;stroke-linecap:round;stroke-linejoin:round;stroke-width:2px"/></g></g></svg>