<?xml version="1.0" encoding="utf-8"?>
<!-- Generator: Adobe Illustrator 26.0.1, SVG Export Plug-In . SVG Version: 6.00 Build 0)  -->
<svg version="1.1" id="Layer_1" xmlns="http://www.w3.org/2000/svg" xmlns:xlink="http://www.w3.org/1999/xlink" x="0px" y="0px"
	 viewBox="0 0 581.4 559.8" style="enable-background:new 0 0 581.4 559.8;" xml:space="preserve">
<style type="text/css">
	.st0{fill:none;stroke:#333333;stroke-width:4;stroke-linecap:round;stroke-linejoin:round;}
	.st1{fill:none;stroke:#333333;stroke-width:2;stroke-linecap:round;stroke-linejoin:round;}
</style>
<g>
	<path class="st0" d="M377.2,261.8c-5,7.5-18.5,8.4-25.2,1.1c-3.4-3.7-8-6.6-9.9-11.8c-0.7-2.2-2.9-3.2-5.5-3
		c-21.5,24.4-43.4,48.7-63.4,74.5c-19.6,25.3-39.2,50.6-52.3,80c-7.1,16-5.4,31.7,2.8,47.2c5,9.4,10.9,17.6,19.9,23.5"/>
	<path class="st1" d="M312.3,233.2c-19.1,23.1-38,46.2-57.2,69.2c-18.8,22.6-38,44.9-56.9,67.5c-7.5,8.9-14.6,18-22.8,26.3"/>
	<path class="st0" d="M101.6,161.1c-8.7,4-15.5,10.8-22.5,16.9c-14.7,12.7-27.9,27-39.2,42.9C24.6,242.5,12,265.4,8,292.1
		c-0.5,3.6-0.7,7.2,1.1,11.9c5-3.7,9.4-7.4,14.3-10.4c4.7-3,9.2-6.9,15.5-6"/>
	<path class="st0" d="M326.9,488.2c-3.9-7.6-11.3-11.9-17.1-17.7c-1.6-1.6-3.8-2.7-3.3-5.9c22.2-3.5,44.1-7.9,65.2-15.9
		c19.7-7.5,38.2-17.3,55-31.2c2.7,5.6-0.7,9-1.1,12.8c-0.4,3.6-2.1,7-3.3,10.5c-9.7,27.7-24.1,52.7-43.9,74.3
		c-9.8,10.7-21,20.3-33.5,27.8c-7.2,4.4-14.7,8.5-23,11c-2.5,0.8-4.6,1.1-7.3,0.5c-0.1-4.8,2.8-8,4.8-11.5
		c4.7-8.2,10.4-15.9,12.3-25.6c0.6-3.3,4.8-4.9,7.7-6.5c10.2-5.9,18.4-13.6,25-23.3c1.6-2.4,2.6-4.7,1.5-8c-4.1-1-7.9,0-12,1.2
		c-15.8,4.8-31.4,10.2-48,11.6c-14.2,1.3-28.1-0.2-41.2-6.2"/>
	<path class="st0" d="M466.5,128.3c-4.9-0.9-9.2,1.4-11.5,4.8c-6.2,9-15.2,13.4-24.8,17.2c-15.9,6.4-32.7,8.1-49.5,9.5
		c-4.4,0.4-5.3-2.5-6-5.2c-1.8-6.5-3.1-13.2-4.4-19.9c-3.1-15.6-2.2-30.8,3.7-45.7c1.8-4.5,4.5-8.9,8-11.9c4-3.4,5.8-7.4,7-12
		c11.5-42.2,66-50,89.8-23.3c9.6,10.8,14.7,22.4,15.5,36.4c0.1,1.6-0.5,2.3-1.3,3.3"/>
	<path class="st0" d="M101.3,162.8c2.3,2.6,0.5,5.3,0.1,7.8c-3.4,20.7-5.1,41.5-4.8,62.5c0.2,19.1,1.5,38.1,4.5,57.1
		c0.4,2.7,2.5,6.4-0.8,8.4c-2.7,1.7-5-1-7.3-2.4c-4.6-2.7-9.2-5.5-13.9-8c-3.7-2-7.3-4.7-11.9-4.4"/>
	<path class="st0" d="M509.3,178.7c15.5-6.7,34.5,8,33.2,25.6c-1,13.7-10.5,23.3-22.6,25.3c-12.7,2.1-25.2-7.1-29.1-19.8
		c-0.9-2.8-0.4-5.2-0.1-7.8"/>
	<path class="st0" d="M310.7,56.2c-13.1,4.2-29.5-7.3-30.4-22c-0.9-15,6.9-25.7,20.8-28.7c14.2-3,26.4,4.3,31.3,19.6
		c0.6,1.9,1,4-0.4,5.9"/>
	<path class="st0" d="M330.8,517.2c-7.1,2.3-14,4.9-21.2,6.8c-22.1,6-43.6,2.7-64.8-4.7c-6.5-2.3-12.5-6-19.7-6.2"/>
	<path class="st0" d="M367.9,107.9c-10-6.8-18.5-15.5-27.6-23.4c-12.3-10.6-23.5-22.1-33.1-35.3c-4.6-6.4-5.3-12.9-1.9-17.7
		c3-4.2,11.5-6.4,17.6-4.1c3.6,1.3,6.9,3.3,10.2,5.2c19.1,10.6,36.7,23.4,52.9,38.2"/>
	<path class="st0" d="M385,197.9c3.1,13.9-10.5,19.8-20.9,13.9c-16.2-9.2-31.7-19-41.2-35.7c-4.2-7.3-0.7-15.8,7.3-18.1
		c1.6-0.5,3.4-0.4,5.1-0.6"/>
	<path class="st0" d="M373.7,215c1.5,11.5-8,19.7-18.8,15.3c-17.6-7.1-32.8-17.8-43.9-33.6c-6.6-9.3-3-18.8,8.6-23.9"/>
	<path class="st0" d="M458.7,83.1c-3.2-7.4-1.8-13.4,5.8-17.9c-6.7-10.1-15.3-15.5-27.1-14.1c-10.8,1.3-19.7,6-24.2,16.8
		c-0.8,1.9-0.7,4.4-3,5.5"/>
	<path class="st1" d="M78.2,394.7c4.5-3.6,10.4-2.6,15.5-4.8c3.1-1.3,5.1-2.8,7.3-5.4c4.6-5.5,9.3-11.5,18.2-9.8
		c6.1,1.2,10.4,4.1,12.7,9.8"/>
	<path class="st0" d="M402.5,176.3c1.5,12-6.6,22.1-17.3,20.5c-5.2-0.8-10.3-4.1-14.9-7.1c-11.9-7.9-23.3-16.4-31.5-28.4
		c-6.1-8.8-2.5-19.2,7.9-21.7c2.1-0.5,4.4-0.6,6.5-0.9"/>
	<path class="st1" d="M194.4,438c3.7,2.9,8.7,4.1,11.6,8.2c4.6,6.5,4.3,19.4-0.9,26.8c-5.1,7.2-7.9,14.9-6.3,23.8"/>
	<path class="st0" d="M415.7,155.4c2,15.5-4.9,22.6-20,20.3c-6.7-1.1-13.1-3.8-18.4-7.9c-9-6.8-17.5-14.2-22-25.2
		c-3.9-9.6,2.2-20.7,11.8-19.8"/>
	<path class="st0" d="M279.9,347.8c-2.9-6.7,3.4-10.8,4.9-17c5.2,7.6,12.2,11.6,21.4,11.5c-2.1,10.5,0.7,20.5-1.7,30.3
		c-1.3,5.5-3.4,10.3-8.9,12.9"/>
	<path class="st1" d="M126.8,417c-0.4-10.2,1.1-20.1,4.7-29.7c3.3-8.8,14.5-15.3,23.7-14.4c9.2,0.9,12.2,8.1,14.5,14.8
		c2.9,8.6,7.6,12.5,16.7,12.6c7.7,0.1,13.8,3.8,17.1,11.2c3.2,7.4,0.5,13.9-4,19.5c-3.7,4.7-8,8.6-15.3,8.6
		c-6.4,0.1-12.8,3.2-19.1,5"/>
	<path class="st0" d="M500.7,171.5c7.4,5.6,11.8,13.6,16.5,21.3c2,3.4,1.8,6.8-1,9.4c-3.8,3.5-8.2,6.5-13.8,3.9
		c-5.8-2.8-12.6-3.8-17.5-8.5"/>
	<path class="st0" d="M178.8,86.6c0.4-2.4-1.1-4.7,0.1-7.4c2.1-4.8,6.5-7.4,11.1-5.6c4.2,1.6,6.6,6.8,5.2,11.3
		c-1.3,4.1-7,6.8-11.3,5.1c-1.7-0.7-3.1-1.9-4.6-2.9"/>
	<path class="st0" d="M462.8,185.9c-8.4-6.3-17-12.3-25-19c-4.8-4-9.5-8.2-13.2-13.3"/>
	<path class="st1" d="M98.3,434.6c4.3-9.4,16.3-16.2,26.3-16.8c9.5-0.6,19.4,2.9,26.6,9c16.4,13.8,19.2,33.6,5.6,50.8
		c-1.1,1.4-2,3-3,4.6"/>
	<path class="st0" d="M277.9,343c-1.6-1.4-3.2-1.3-4.6,0.2c-7.4,8.3-9.8,25.5-4.9,35.4c0.7,1.4,1.7,2.8,3.7,2.9"/>
	<path class="st0" d="M458,129.8c0.4-5.9,1.8-11.9-1.1-17.5c-1.7-3.2-3.6-5.6-4.4-9.7c-2.2-12-2.9-12,6.9-19.2
		c9.2,1.4,16.8,5.3,22.5,12.9c5.5,7.4,8.3,14.8,2.8,23.4"/>
	<path class="st0" d="M280.2,155.1c3.3,0.8,8.2-1.5,8.5,4.9c0.1,2.5-0.2,4.4-2.4,5.6c-2,1.1-4.5,1.8-6.3-0.1
		c-1.6-1.6-3.5-3.5-2.3-6.2c0.6-1.3,1.3-2.6,1.9-3.8"/>
	<path class="st0" d="M488.9,110.2c7.5-2.1,10.1-12.8,7.7-19.9c-4.1-11.9-14.5-16.5-24.3-21.8c-2.6-1.4-5.8-1.6-8.8-2.3"/>
	<path class="st0" d="M463.7,219.5c1,14.6-10.8,20.2-20,17.1c-6.2-2.1-12.1-4.8-18.2-7.2c-7.7-3-15.4-3.7-22.9,0.3
		c-2.1,1.1-4.5,2.3-4.9,5.1"/>
	<path class="st0" d="M306.6,189.7c-13.6,3.6-15.3,17-8.2,26.7c9,12.5,21.2,21.2,34.2,28.8c1.2,0.7,2.4,1.2,3.2,2.5
		c5.3,2.6,13.1,1.7,18.2-1.3c5.2-3,8.7-8.6,9.2-14.5"/>
	<path class="st0" d="M503.5,116.9c4.9,10.3,0.7,15.4-8.1,20.3c-3.4,1.9-7,3.5-10.4,5.3c-9.9,5.4-13,14.5-13.4,25"/>
	<path class="st0" d="M484.1,120.9c-1.9,1.4-3.7,2.8-5.7,4.2c-2,1.3-4,2.5-6.6,4.1c2.8,5.6,2.2,12.2,4.6,18.1"/>
	<path class="st0" d="M501.8,134.1c4.4,3.1,5.7,7.5,4.5,12.6c-1.4,5.4-4.9,9-10.3,10.8c-9.5,3.3-18.8,6.8-26.4,13.8
		c-3.8,3.5-5.8,7.9-7.4,12.6"/>
	<path class="st0" d="M388.6,71.2c3.1-0.4,6.2-1.3,9.4-1.3c7.5,0,16,7,19.2,15.2c1.8,4.6,3.4,9.3,4.2,14.3
		c10.8,0.1,21.1,0.6,30.2,6.5"/>
	<path class="st0" d="M239.9,269.9c-8.4,8.1-18.2,8.6-27.9,2.4c-5.1-3.3-10.1-6.8-15.9-9.2c-9.7-4-21.8-0.2-26.4,9.3"/>
	<path class="st0" d="M260.3,259.7c-6-7.7-13.7-12.7-23.7-12.7c-6.5,0-12.6,1.6-16.7,7.5"/>
	<path class="st0" d="M498.7,157.9c5.5,13-0.6,17.6-11.5,21.1c-10.3,3.3-21.1,5.3-29.8,12.5c-3.5,2.9-5.9,6-5.7,10.7"/>
	<path class="st0" d="M424.2,247.8c-4.3,11.1-18.3,14-26.7,6.2c-7.9-7.4-15.5-16.2-27.7-16.1c-5.2,0-10.3,0.4-13.6,6.4
		c-2.6,4.8-8.8,4.9-13.9,5.8"/>
	<path class="st0" d="M442.2,237.7c-2.5,10.3-10.4,13.4-20.4,7.9c-7.4-4.1-15.1-7.8-23.3-9.8c-6.3-1.5-13-1.7-18.2,3.7"/>
	<path class="st0" d="M477.6,200.5c4.2,11.9-2.3,18.7-15.1,18.1c-6.3-0.3-12.9-1.5-19-0.5c-7.2,1.1-15.5,1.7-19.9,9.5"/>
	<path class="st0" d="M195.7,499.1c-6.2-3.2-13.4-1.6-20.4,4.7c-4,3.6-7.8,7.4-11.8,11c-4.1,3.7-10.7,5-16.2-0.8
		c-3.8-4-7.2-7.7-12.3-10.1c-5.6-2.5-7.1-8.2-8-13.9"/>
	<path class="st0" d="M211.1,494.1c-10-0.7-15.2,5.4-20,12.9c-2.1,3.4-4.2,6.9-6.7,10.2c-7,9-16.4,9.2-22.6-0.3"/>
	<path class="st0" d="M251.3,270.2c-8.7,1.4-15-3.1-21.2-8.2c-7.5-6.1-15.7-10.8-25.7-7.9c-3.7,1.1-8.9,1.8-9.5,7.5"/>
	<path class="st0" d="M399.4,257.4c-8.4,8.1-15.9,8.5-24.5,1.3c-5.8-4.8-11.3-10-18.7-12.5"/>
	<path class="st0" d="M173,297.8c-3.3,10.7-11.1,14-21.1,9.3c-4.4-2.1-9.1-3.7-13.9-4.8c-9.4-2.2-15.3,3.8-17.7,16.9"/>
	<path class="st0" d="M213.5,275.1c-4.4,5.3-10,8.1-16.8,8.4c-3.1,0.2-5.5-0.7-8.4-2.4c-6.7-3.8-13.2-8.7-21.6-8.1
		c-7.7,0.5-11.4,3.4-14.7,12.4"/>
	<path class="st0" d="M489.4,179.8c-0.4,3.6,1.4,6.9-0.4,11c-2.8,6.2-7.9,7.2-13.1,8.4c-7.4,1.7-15,2.6-22.5,4.1
		c-6.7,1.3-11.4,6.8-12.2,13.7"/>
	<path class="st0" d="M262.7,449.7c-7.4,3.2-10.2,8.7-9.1,17c0.7,5.1,2.9,9.6,4.4,14.4c2.7,8.7-3.4,19.4-12.4,20.9
		c-1.5,0.2-3.4,0.3-3.7,1.4c-1.4,5-6.2,6.9-9,10.5"/>
	<path class="st0" d="M228.9,488.1c-1,5.8-2.3,11.6-3,17.4c-1.3,11-11.4,17.8-22.5,14.9"/>
	<path class="st0" d="M190.6,284c-0.9,4.1-4,6.8-7,8.8c-4.1,2.8-8.9,5.6-14.3,1.3c-3.7-2.9-8.2-4.9-12.6-6.7
		c-7.9-3.3-16-0.8-20.1,8.6c-0.7,1.7-1.2,3.5-1.7,5.2"/>
	<path class="st0" d="M240.5,481.1c-8.1,3.1-16.4,5.9-24.1,9.6c-8,3.8-9.1,13.5-10.9,21.8c-2.3,10.6-12.6,16-22.4,11.7
		c-0.7-0.3-1-1.3-1.5-2"/>
	<path class="st0" d="M144.5,322.8c-2.1,10.4-5.5,12.8-16.1,12.8c-7.8,0-15.7-0.2-22.4,5.2c-2.6,2.1-3.6,4.8-4.7,7.6"/>
	<path class="st0" d="M498.9,98.8c3.6,0.9,5.8,3.7,7.1,6.6c2.5,5.4-0.9,10.6-7.2,11.7c-4.6,0.7-8.6,3.3-13.3,3.5"/>
	<path class="st0" d="M180.6,499.1c-8.7-4.4-17.1-4.3-25.4,1.1c-3.9,2.6-8.3,4.6-12.4,6.9"/>
	<path class="st0" d="M155.5,310.7c-1.7,4.7-3.2,9.3-9.3,10.2c-1.2,0.2-2,0.3-3.3-0.1c-6.8-1.9-13.9-1.5-20.8-1.4
		c-6.8,0.1-12.3,7.9-13.2,17.6"/>
	<path class="st0" d="M268.8,433.2c-7.4,9.1-7.5,15.4-1,24.6c2.3,3.3,6.7,5.9,6.1,10.5c-0.8,6.3-3.8,11.7-8.6,16.2
		c-1.6,1.6-2.8,1.6-4.5,1.5"/>
	<path class="st0" d="M272.8,397.6c-4.7,10.3-3,16.6,5.5,23.8c3.4,2.9,8.3,4,9.9,9.5c1.1,3.5,1.9,7.5,0.3,9.6
		c-4.5,5.6-4.2,12.3-6.3,18.4c-1.2,3.7-3.2,7.1-7.6,8"/>
	<path class="st0" d="M268.8,248.6c-5.7-2.9-11.6-3.7-17.9-2.8c-1.9,0.3-2.7,1.4-3.6,2.7"/>
	<path class="st0" d="M354.6,265.7c-1.7,4.7-6.5,6-10,5.5c-6.7-0.9-13.2-0.6-19.8,0.6c-2.4,0.4-4.4-0.3-6.1-1.9"/>
	<path class="st0" d="M562,341.9c3-1,6.1-1.9,8.5,0.9c2.2,2.5,3,4.9,0.8,8.4c-2.3,3.7-4.8,3-7.9,2.4c-3.9-0.7-4.2-3.6-3.9-6.6
		c0.2-1.6,1.3-3.2,2-4.7"/>
	<path class="st0" d="M288,427.8c5.9-9.5,4.5-15.9-4.3-22.4c-1.4-1-2.9-2.1-4.3-3.1c-7.7-5.8-9.9-13.8-6.2-22.6
		c2.6-6.2,10.8-6,16-2.9c6.3,3.7,7.2,11.5,2.9,17.7"/>
	<path class="st0" d="M283.8,446c-3-2.6-6-5.1-8.9-7.8c-7.5-7-8-12.4-2.3-21.4"/>
	<path class="st0" d="M474,142.7c-6.4-2.2-11.2-6.7-15.7-11.5"/>
	<path class="st0" d="M289.9,408.9c4.7-4.5,3.9-10.4,1.5-14.7c-2.9-5.2-8.5-8.2-15.1-7.1c-0.9,0.2-1.9,0.3-2.8,0.5"/>
	<path class="st0" d="M135.1,336c-0.3,9.4-3.4,12.8-12.3,14.7c-3.8,0.8-8.7-0.6-11.2,4.2"/>
	<path class="st0" d="M471.7,124.5c-0.3-8.3-10.4-18.9-17.5-20.5"/>
	<path class="st1" d="M290.9,354.1c2.1,7.5-0.2,14.6-2.4,21.6"/>
	<path class="st0" d="M252.4,466c-8.3,3.3-10.4,10.2-10.5,18.1c0,5.9,0.6,11.7,0.9,17.6"/>
	<path class="st0" d="M160.9,496.1c-4.2-5.9-9.8-8.5-17.1-8.2c-5,0.3-9.9,0.8-14.9,1.4c-4,0.5-8,0.1-9.8-4.6"/>
	<path class="st1" d="M280.3,357.1c0,5.8,0.1,11.6,0.1,17.4"/>
	<path class="st0" d="M327.5,260.2c1.9,3.1,5,5.4,5.9,9.1"/>
	<path class="st0" d="M496.7,104.5c4.9,3.4,0.6,8.2,1.8,12.2"/>
	<path class="st0" d="M130.4,349.1c1.2,3.7,0,7.2-1.4,10.6"/>
	<path class="st0" d="M504.3,359.8c1.2,4.6,0.3,8.7-4.4,10.1c-2.3,0.7-6.4,0.3-7.6-2.8c-0.9-2.5-1.5-5.7,1.1-8
		c2.2-1.9,4.5-4,7.5-1.6c0.9,0.8,2.6,0.2,3,1.8"/>
	<path class="st0" d="M173.8,153.2c1.1,4.6-0.9,7.7-5.1,9.2c-3.2,1.2-6.3,0.1-8.2-2.6c-2.4-3.4-1.9-7,1.4-9.8
		c3.5-3,7.9-1.9,11.5,2.6"/>
	<path class="st0" d="M295.8,215.1c-8.7,11.5-17.2,23.1-26.3,34.3c-10.8,13.4-21.9,26.5-33,39.6c-13.6,16-28.2,31.2-44.1,44.9
		c-15,12.9-31.1,24.6-52.3,26.3c-18.7,1.5-34.1-4.3-46.8-18.2c-24.3-26.6-31.4-57.9-25.2-92.7c0.5-3,0.3-6.1,1.1-9
		c0.1-0.4-0.7-1-1.5-2c-6,0.8-9.3,5.6-12.4,10.1c-11.8,17.1-17.2,36.2-16.9,56.9c0.3,22.8,7.6,43.3,19.6,62.7
		c10.5,16.9,23.7,32,32.6,50c8.7,17.4,12,35.1,7.4,54.3c-2,8.5-4.2,16.7-8.4,24.4c15.2-10.1,32.7-15.9,50.9-16s36.5,5.3,51.7,15.3"
		/>
	<path class="st1" d="M101.7,452.7c4.8-13.7,25.4-15.3,35.1-6.5c5.1,4.6,8.4,10.8,7.6,17.9c-0.7,5.6-3,12.8-7.5,16.5"/>
</g>
</svg>
