<svg xmlns="http://www.w3.org/2000/svg" viewBox="0 0 539.7 553"><g id="Layer_2" data-name="Layer 2"><g id="Layer_1-2" data-name="Layer 1"><path d="M260.17,243.23c.86-4.43,0-8.86,0-13.29.08-7,.49-14,.69-21.06.54-19.12,1.77-38.19,3.56-57.26,2-21.3,6.23-42.17,10.1-63.14a343.51,343.51,0,0,1,8.67-37.25c3.95-13,7.3-26.28,12.72-38.85,3-6.91,7.89-10.55,14.45-10.37,2,.05,3.64.77,4.31,2.31.57,1.31,0,2.92-.93,4.42-8,13.12-13.45,27.37-17.79,42.07-3.25,11-6.3,22-8.91,33.23-1.61,6.87-3.37,13.68-4.47,20.68-.95,6.09-2.67,12.06-4,18.11-1.35,6.36-2.59,12.74-3.35,19.2-.93,7.89-2.27,15.74-2.81,23.65-.26,3.81-.68,7.63-1,11.43-1.22,15,0,30.06-.72,45.07-.4,8.88-1.29,17.73.11,26.59.23,1.46-1.2,2.13-1.49,3.33" style="fill:none;stroke:#333;stroke-linecap:round;stroke-linejoin:round;stroke-width:4px"/><path d="M394.61,15c-1.18-3.06-2.74-5-6.63-5.35-4.59-.43-8.89-1-13.35.84-3.3,1.33-4.51,4.17-6.25,6.73-8.24,12.12-14.67,25.28-21.73,38.07-10.11,18.29-18,37.56-25.28,57.18-10.26,27.71-17.37,56.27-23.75,85-3.19,14.34-5,29-7.09,43.56-.84,5.84-.83,11.8-1.17,17.72-.08,1.33.22,2.75-1.12,3.69" style="fill:none;stroke:#333;stroke-linecap:round;stroke-linejoin:round;stroke-width:4px"/><path d="M115.76,364.38c-1.91-.5-3.52.29-5.18,1.09-7.13,3.42-14.74,5-22.51,6.37-14.42,2.47-27.39-2.32-40.22-7.59-3.41-1.4-6.26-4.23-9.27-6.54-6.69-5.12-13.15-10.55-20-15.42-4.89-3.47-10.22-6.61-16.57-3" style="fill:none;stroke:#333;stroke-linecap:round;stroke-linejoin:round;stroke-width:4px"/><path d="M184.82,87.37a236.78,236.78,0,0,0,3.09,35.81c2.67,15.67,5.63,31.28,10.23,46.6,6.05,20.19,12.45,40.23,20.34,59.77a28.82,28.82,0,0,0,4.49,8c1.93,2.22,1.89,4.34,1.36,6.74a49.29,49.29,0,0,0,.72,20.69c.2.67.59,1.47,0,2.21" style="fill:none;stroke:#333;stroke-linecap:round;stroke-linejoin:round;stroke-width:4px"/><path d="M252.78,272c6,1.29,10.51,5.31,15.1,8.92,13.93,10.94,20.66,26.3,25,42.82,1.15,4.35,1.16,9.12,1.88,13.59.62,3.79-.22,7.74,2,11.69,1.31,2.38-.74,6.73-1.52,10.14-3.78,16.67-14.38,28-28.81,36.15-5.18,2.92-10.35,6-16.2,7.53-.71.19-1.55,1-2.21.6-3.38-1.87-6.81-.3-10,.2-9.23,1.47-18.12.11-27-2a57.32,57.32,0,0,1-21.25-10.42c-3-2.27-7.63-5.05-12.43-1.84-1,.68-2.89.1-4.37.1" style="fill:none;stroke:#333;stroke-linecap:round;stroke-linejoin:round;stroke-width:4px"/><path d="M391.28,473c-1.19,3.59-4.62,3.69-7.4,4.36-9,2.18-18.17,1.85-27.3,2.44-11.33.74-22.62,2.13-32.93,7.89C314.08,493,306.9,500,304.51,511a27,27,0,0,0,0,11.8,9.52,9.52,0,0,1-.42,5.55" style="fill:none;stroke:#333;stroke-linecap:round;stroke-linejoin:round;stroke-width:2px"/><path d="M487.68,223.29c2.06,1.37,4.23,1.09,5.45-.8,1.4-2.18,4.6-3.27,4.15-6.59,4.19-2.92,6.41-8,11.1-10.31,2.75-1.36,7.5-.09,9.22,2.19,1.53,2,1.62,7.57,0,9.57a25.05,25.05,0,0,1-3.11,2.79c-.28,7.74,4.68,11.65,9.42,15.71,3.71,3.17,7.59,6.12,10.76,9.93,3.88,4.66,3.26,9.92,2.5,15.18-2,14-11.32,22.53-22.5,29.52-10.2,6.37-21.09,11.5-31.63,17.24-5.2,2.84-10.76,3.42-16.07,5.11-9.19,2.92-18.57,5.41-28,7.71-10.5,2.57-21.09,3.5-31.8,3.95-2.09.09-4.18.24-6.27.37" style="fill:none;stroke:#333;stroke-linecap:round;stroke-linejoin:round;stroke-width:4px"/><path d="M362.84,215.16c-1.08,2.14.12,4,.76,5.91,1.84,5.4,3.72,10.9,3.23,16.62C365.11,258.1,357,275,338.39,285.2c-6.32,3.46-13.37,6.07-21,5.28-3.75-.39-7.52-.64-11.11-2.13a6.73,6.73,0,0,0-5.51-.06" style="fill:none;stroke:#333;stroke-linecap:round;stroke-linejoin:round;stroke-width:2px"/><path d="M380.57,242.49c1.49,6.71,3.44,13.33,3.35,20.32a50.36,50.36,0,0,1-11.51,32.1c-6.44,7.91-14,14.76-23.64,18.4-6.92,2.6-14,5.58-21.75,2.68" style="fill:none;stroke:#333;stroke-linecap:round;stroke-linejoin:round;stroke-width:2px"/><path d="M433.76,89.22c10-5.88,13.93-15.69,15.76-26.24,3.16-18.19-2.16-33.95-15.83-46.45a24,24,0,0,0-22.46-6c-.38.09-.75.38-1.11.35-11.52-1.06-19.38,5.71-25.28,13.83a374.92,374.92,0,0,0-25.48,40.76c-5.19,9.5-9.46,19.41-14.53,28.94A214.8,214.8,0,0,0,334.5,117c-3.56,9.12-7.15,18.23-10,27.63-2.26,7.41-4.48,14.87-7.06,22.2-4.87,13.83-8.69,28-12.44,42.13a331,331,0,0,0-7.32,34.35c-1.13,7.35-3.39,14.58-3.13,22.13a3.45,3.45,0,0,1-.69,2.26c-1.51,2.19-1,4.45.31,6.61,3,4.76,4.7,10.16,6.67,15.28,1.37,3.53,1.6,8.23,1.21,12.41-.41,4.41.29,7.9,4.66,10,1.53.75,2.73,2.16,4.09,3.26" style="fill:none;stroke:#333;stroke-linecap:round;stroke-linejoin:round;stroke-width:4px"/><path d="M378.36,241.76c-1.48,5.41-2.71,10.91-4.48,16.23-5.35,16.07-16,27.06-31.65,33.78-5.7,2.46-11.41,4.71-17.43,4.83-6.69.14-13.53-.76-19.53-4.32-1.23-.73-2.28-1.48-3.74-1.4" style="fill:none;stroke:#333;stroke-linecap:round;stroke-linejoin:round;stroke-width:2px"/><path d="M249.83,445.26c6.13,8.52,8.92,18.31,10.66,28.45.85,5-.33,10-1.57,14.73-2.11,8-4.51,16.1-10.22,22.55-3,3.39-6,6.78-9.25,10a27.06,27.06,0,0,0-7,12c-.57,2-1.35,3.71-3.42,4.81-4.79-29.62-5.46-59,.08-88.47" style="fill:none;stroke:#333;stroke-linecap:round;stroke-linejoin:round;stroke-width:4px"/><path d="M376.51,111c1.61,5.42.9,10.92-.12,16.23-1.31,6.88-2.86,13.8-6.53,20-7.69,12.91-18.26,22.38-32.89,26.51-7,2-14,.85-20.66-2.13" style="fill:none;stroke:#333;stroke-linecap:round;stroke-linejoin:round;stroke-width:2px"/><path d="M27.85,333c3,1.47,6.18.82,9.23.67a235.88,235.88,0,0,1,40.28,1.82,176.64,176.64,0,0,1,41,9.71,2,2,0,0,0,1.85,0" style="fill:none;stroke:#333;stroke-linecap:round;stroke-linejoin:round;stroke-width:2px"/><path d="M399.78,49c-1.15,2.53.1,5,.48,7.37,2.51,15.74-1.74,29-14.19,39.12-9.43,7.67-20.42,10.36-32.46,8.52-3.69-.56-6.82-2.55-10-4.41" style="fill:none;stroke:#333;stroke-linecap:round;stroke-linejoin:round;stroke-width:2px"/><path d="M428.59,446.74c-.12,2.21-.69,4.32-.52,6.66.27,3.92-2.34,7-4.68,9.94-5.69,7.13-13.9,7.78-22.13,8.55-11.15,1.05-22.15-1-33.24-1.27-6.54-.15-12.81,1.24-19.21,1.85-5.46.52-11,.87-16.26,2.67-13.48,4.57-24.59,11.94-31,25.15-4,8.27-2.94,16.67-.73,25.12C305,529,306.08,535.56,312.59,537c2.13.46,4,2.3,5.93,3.58,9.37,6.17,20.05-1.61,21.76-10.36.68-3.45-1.6-6-5.14-6.27" style="fill:none;stroke:#333;stroke-linecap:round;stroke-linejoin:round;stroke-width:4px"/><path d="M123.14,357c-6.65,4.2-8.18,11.38-10.28,18.11a51.71,51.71,0,0,0-1.65,22.9c2.65,19.19,13.18,33.42,27.52,45.33,2.2,1.83,5.34,2.55,8.05,3.78" style="fill:none;stroke:#333;stroke-linecap:round;stroke-linejoin:round;stroke-width:4px"/><path d="M355.46,223.29c2.35,4.12.74,8.56.16,12.52a55.55,55.55,0,0,1-17.94,34c-7.52,6.8-16,11.88-26.53,12.75-3.4.27-6.64.91-10-.08-.88-.26-2,.19-2.94.31" style="fill:none;stroke:#333;stroke-linecap:round;stroke-linejoin:round;stroke-width:2px"/><path d="M478.08,46c2.7,7.39,4,15.37,8.23,22.09a59.81,59.81,0,0,1,8,19.28c2.89,13.32-3.47,29.14-14.76,36.9-1.15.78-2.12,1.5-2.2,3" style="fill:none;stroke:#333;stroke-linecap:round;stroke-linejoin:round;stroke-width:4px"/><path d="M372.45,220.7c-.41,4.22,2,7.82,2.59,11.82a14.15,14.15,0,0,0,2.44,6.37c1.17,1.68,2.08,2.74,4.17,3.35,3.19.93,4.12,4.34,5.51,6.94,4.6,8.58,5,17.7,3.91,27.31-1.45,12.85-7.37,23.24-16.14,32-6.49,6.48-14.27,11.37-23.53,13.44-6.46,1.45-12.9,2.86-19.58,2.15-2.72-.28-5.42-.83-8.13-1.26" style="fill:none;stroke:#333;stroke-linecap:round;stroke-linejoin:round;stroke-width:4px"/><path d="M411.6,10.92c.65,1.44,1.89,2,3.3,2.63,12.21,5.37,21.4,14.23,24.84,27a42.33,42.33,0,0,1-3.41,31.68c-2.07,3.83-3.8,8-8.11,10" style="fill:none;stroke:#333;stroke-linecap:round;stroke-linejoin:round;stroke-width:2px"/><path d="M354,177.86c4.07,9.32,9.78,17.26,18.45,22.93,7.22,4.71,15.33,6.18,23.66,7,6.59.62,13.17,1,18.86,5.15,6,4.4,7.84,12.46,3.63,18.48-1.9,2.72-4.2,5.16-6.24,7.79-6.59,8.49-2.18,19.11,6.28,22.5a54.67,54.67,0,0,0,7.77,2.54,5,5,0,0,0,4.41-.67" style="fill:none;stroke:#333;stroke-linecap:round;stroke-linejoin:round;stroke-width:2px"/><path d="M393.87,41.57c-1,5.2.71,10.3.45,15.52-.58,12.26-5.14,22.41-15.27,29.48-7.69,5.36-16.55,6.91-25.8,5.93-2.13-.23-3.74-1.85-5.55-2.91" style="fill:none;stroke:#333;stroke-linecap:round;stroke-linejoin:round;stroke-width:2px"/><path d="M303.38,320.42c1.65,0,3.37.34,4.44-1.47,1.58-2.68,4.07-4,7-4.84a52.42,52.42,0,0,0,7.45-2.81,4,4,0,0,1,4,.3c1.28,1.08.9,2.59.42,4a41.75,41.75,0,0,0-1.85,14.4,114.31,114.31,0,0,0,3.32,22.53c3.12,13.52,2.45,26.07-7.67,37-4.69,5.08-8.11,11.22-8.94,18.38-.44,3.74-2.28,6.43-5.13,8.92-10.79,9.46-23.22,15.76-36.57,20.75a207.14,207.14,0,0,1-19.7,6.62c-5.5,1.45-11.21,2.7-16.88,3.77-4.71.89-9.43-.07-14.1,1.18a18.4,18.4,0,0,0-7,3.45c-1.4,1.13-2.84,2.17-4.8,1.84" style="fill:none;stroke:#333;stroke-linecap:round;stroke-linejoin:round;stroke-width:4px"/><path d="M127.21,365.48c-4.65,3.54-5.48,9-6.13,14.06-2.63,20.21,5.06,36.88,19.12,50.88,3.21,3.19,7.32,5.48,11,8.19" style="fill:none;stroke:#333;stroke-linecap:round;stroke-linejoin:round;stroke-width:2px"/><path d="M339.58,107.32a55,55,0,0,0,40.71,2.22,45.62,45.62,0,0,1,2.65,24,77.19,77.19,0,0,1-3.12,14,26.48,26.48,0,0,1-6.73,11c-3.9,3.57-4,7.29-2.1,11.55,4.31,9.7,11.46,15.77,22.12,17.81,6.68,1.28,13.6,1.88,19.77,5.11A29.73,29.73,0,0,1,428,211.17a31.07,31.07,0,0,1,.18,16.9,12.83,12.83,0,0,1-3.62,5.57,41.79,41.79,0,0,0-5.23,5.87c-4.19,6-3.37,13.27,2.28,17.74a15.61,15.61,0,0,0,3.68,2.2c5.41,2.23,10,6,15.82,7.61,7.7,2.14,11.78,10.21,7.13,17.94a9.32,9.32,0,0,1-3.74,3.68c-2,1-4.17,1.4-5.85.25-2.12-1.44-3.41-3.71-2.29-6.55" style="fill:none;stroke:#333;stroke-linecap:round;stroke-linejoin:round;stroke-width:4px"/><path d="M138.66,194.85c6.17,21.09,21.8,31.87,41.78,37.12a39.56,39.56,0,0,0,25.8-2" style="fill:none;stroke:#333;stroke-linecap:round;stroke-linejoin:round;stroke-width:2px"/><path d="M354,222.92c-1.73,3.89-1.68,8.24-3.28,12.2-7.47,18.38-19.81,31.94-38.9,38.17-4.24,1.39-9.06,3.13-14,1.78-.59-.16-1.46.66-2.2,1" style="fill:none;stroke:#333;stroke-linecap:round;stroke-linejoin:round;stroke-width:2px"/><path d="M468.11,333.35a6.4,6.4,0,0,0-.47,3c2.36,14.46-2.57,26.51-12,37.35-8,9.18-18,14.09-29.6,16.64-2.14.47-3.73-.45-5.56-.82" style="fill:none;stroke:#333;stroke-linecap:round;stroke-linejoin:round;stroke-width:2px"/><path d="M479.56,366.59c-2,1.22-1,3.47-.93,4.79.54,7.11-2.26,13-6.55,18-5.47,6.43-11.66,12.19-19.85,15.24a75.88,75.88,0,0,1-14.75,3.47,40.49,40.49,0,0,1-19.6-1.66,43.35,43.35,0,0,1-4.07-1.83" style="fill:none;stroke:#333;stroke-linecap:round;stroke-linejoin:round;stroke-width:2px"/><path d="M195.53,421.62c-.8,2.4-3.22,3.18-4.82,4.79-15.35,15.46-29.9,31.58-41.32,50.26-2.73,4.46-5.3,9-7.73,13.68a7.88,7.88,0,0,1-3.74,4" style="fill:none;stroke:#333;stroke-linecap:round;stroke-linejoin:round;stroke-width:2px"/><path d="M362.11,170.84c3.1,7.9,7.7,14.65,14.76,19.59,5.25,3.67,11.26,5.27,17.37,6.63,5,1.13,10.14,2,15.13,3.37a23.62,23.62,0,0,1,15.14,11.42c.77,1.36,1.39,2.79,3.34,2.57" style="fill:none;stroke:#333;stroke-linecap:round;stroke-linejoin:round;stroke-width:2px"/><path d="M378.36,247.66c2.31,6.8,1,13.63-1.27,19.89-5.12,14-13.15,26.14-26.86,33.19a60,60,0,0,1-18.76,6.14c-9.63,1.4-18.5.35-26.64-5.25-.5-.34-1.45,0-2.19,0" style="fill:none;stroke:#333;stroke-linecap:round;stroke-linejoin:round;stroke-width:2px"/><path d="M146,186a10.86,10.86,0,0,0-.66,10.31c3.52,8.41,10.12,13.87,18,18.18,8.12,4.45,16.57,7.52,25.88,7.25,4.33-.13,8.79-.58,12.56-3.24" style="fill:none;stroke:#333;stroke-linecap:round;stroke-linejoin:round;stroke-width:2px"/><path d="M350.29,198.17c-1.93,3.32-1.53,7.18-2.49,10.74-3.85,14.38-12,25.86-23.42,35-6.82,5.44-15.18,7.81-23.6,9.59-1.22.26-2.69-.65-4-1" style="fill:none;stroke:#333;stroke-linecap:round;stroke-linejoin:round;stroke-width:2px"/><path d="M143.46,183.77a7.87,7.87,0,0,0-4.1,7.76c.11,1.95-1,3.05-2.91,3.73-5,1.79-7.35,6.47-8.58,10.75s-2.85,8-6.27,10.55a15.82,15.82,0,0,0-5.82,8.95c-1.71,6.3-4.43,12.38-3.75,19.2,1.57,15.77,6.77,29.78,18.88,40.61a3.33,3.33,0,0,0,1.1.39" style="fill:none;stroke:#333;stroke-linecap:round;stroke-linejoin:round;stroke-width:4px"/><path d="M369.12,112.86c.12,12.29-5.53,22.33-12.58,31.74a38.35,38.35,0,0,1-21.78,14.73c-4.71,1.16-9.59,2.36-14.39.06" style="fill:none;stroke:#333;stroke-linecap:round;stroke-linejoin:round;stroke-width:2px"/><path d="M253.15,263.92,250,266.47c2.51,3.42,1.78,6.77,1.6,10a8.42,8.42,0,0,0,2.29,6.63c7.46,7.71,7.69,16.69,4.77,26.24-1.4,4.58-3.38,9-4.29,13.7-.77,3.93-2.26,8-.59,12.2a4.69,4.69,0,0,1-1.39,5.13" style="fill:none;stroke:#333;stroke-linecap:round;stroke-linejoin:round;stroke-width:4px"/><path d="M417.51,469.27c3.54,4.55.35,8.52-1.59,12.13-5.49,10.22-14.76,15.54-25.75,18.14-7.71,1.82-15.5,1.12-23.26.37-8.74-.85-17.33-3.17-26.23-2.59-12.27.81-22.44,5.3-28.37,16.67a17.82,17.82,0,0,0-.43,16.59c1,2,2.07,3.95,1.1,6.28" style="fill:none;stroke:#333;stroke-linecap:round;stroke-linejoin:round;stroke-width:4px"/><path d="M472.17,53.39c1.32,4.11-.71,8.08-.49,12.2a128.18,128.18,0,0,0,1.73,12.9c1.49,9.49.19,18.41-3,27.39-1.87,5.3-6.07,8.2-9.75,11.74-.38.37-1,.48-1.07,1.15" style="fill:none;stroke:#333;stroke-linecap:round;stroke-linejoin:round;stroke-width:2px"/><path d="M400.15,432.7a6.7,6.7,0,0,1,.76-4.41c6.9-10.5,10.57-22.54,16.28-33.6a315.68,315.68,0,0,1,16.9-28.86c7.85-11.93,17.22-22.67,25.91-33.94,1.89-2.45,5.16-2.4,7.39-.41,8.77,7.84,9.35,17.7,7.81,28.48-2.14,15-11.88,23.92-23.73,31.36-7.33,4.59-15.53,6.83-24,8.12a12.93,12.93,0,0,1-10-2.93" style="fill:none;stroke:#333;stroke-linecap:round;stroke-linejoin:round;stroke-width:4px"/><path d="M363.58,324.12c-1.4,1.5-1,3.38-1.11,5.17-1.19,21-10.05,37.77-27.4,49.75-2.13,1.47-4.88,3.66-8.05,1.59" style="fill:none;stroke:#333;stroke-linecap:round;stroke-linejoin:round;stroke-width:2px"/><path d="M198.49,472.22c1.41,2.83.22,5.65.07,8.5-.31,6,1.14,11.77,3.26,17.36,3,7.92,8.49,14.27,13.32,21,3.35,4.7,7.33,9,9.6,14.41a4.24,4.24,0,0,0,2.93,2.6" style="fill:none;stroke:#333;stroke-linecap:round;stroke-linejoin:round;stroke-width:4px"/><path d="M388,36c-.31,3.77,1.2,7.29,1.22,11.08.05,9.15-3.62,16.78-8.61,24A25.85,25.85,0,0,1,364,81.88,17.12,17.12,0,0,1,352.13,80" style="fill:none;stroke:#333;stroke-linecap:round;stroke-linejoin:round;stroke-width:2px"/><path d="M443.36,105.84c3.85,6,7.68,11.46,15.42,13.79,5.28,1.59,10.22,4.9,15.58,7,6.92,2.64,13.61,5.86,20.7,8.09,2.38.74,4.63,2.19,7,2.47,7.18.84,10,8.54,8.48,14.87-1.33,5.48-4.19,10.34-6.37,15.47-3.28,7.73-1.94,10.65,2.9,15.33,2.77,2.68,6.29,5.72,5.69,10.56a18.08,18.08,0,0,1-2.32,7.33,6.9,6.9,0,0,0-1.38,4.12" style="fill:none;stroke:#333;stroke-linecap:round;stroke-linejoin:round;stroke-width:4px"/><path d="M353.24,220c-2.76,1.38-3.61,4.17-4.78,6.66A74,74,0,0,1,314.06,262c-5.94,3-12.13,5.82-19.17,4.87" style="fill:none;stroke:#333;stroke-linecap:round;stroke-linejoin:round;stroke-width:2px"/><path d="M89.9,314.52c-3.5,1.47-7,0-10.32-.52a56.53,56.53,0,0,0-23.26,1c-11.24,2.83-20.44,9.42-28.88,17.2-1.62,1.49-4.14,1.54-6.22,2.31-3.15,1.16-6.89.38-9.62,2.91" style="fill:none;stroke:#333;stroke-linecap:round;stroke-linejoin:round;stroke-width:4px"/><path d="M242.44,132.06c5.54,1.56,7.43-.95,9.1-6.2,2.48-7.8,7.12-14.88,9-23,1.67-7.29,1.44-14.2-4.37-20-3.07-3-6.94-3.1-10.75-3.66" style="fill:none;stroke:#333;stroke-linecap:round;stroke-linejoin:round;stroke-width:2px"/><path d="M212.15,422.36c1.14,2.7-1.08,4.49-1.87,6.64a88.48,88.48,0,0,0-4.34,17.75,10.9,10.9,0,0,0,.45,5.83,3.24,3.24,0,0,1-.2,3.35c-2.68,4.18-4.13,8.91-6.26,13.32-.6,1.26-1.06,2.47-2.85,3.15s-3.18,2.65-4.48,4.27c-9,11.23-20.68,17.56-34.73,20a66.93,66.93,0,0,0-12.16,3c-4.54,1.72-9.56,3.29-10.75,9.14" style="fill:none;stroke:#333;stroke-linecap:round;stroke-linejoin:round;stroke-width:4px"/><path d="M484.73,386.17a53.33,53.33,0,0,1-22.52,24.77c-4.49,2.63-9.4,3.53-14.41,4.46a71.82,71.82,0,0,1-18.1.55,51.78,51.78,0,0,1-18.84-5.41" style="fill:none;stroke:#333;stroke-linecap:round;stroke-linejoin:round;stroke-width:2px"/><path d="M344.75,191.16c2.17,3.61-.42,6.79-1.65,9.52-7.11,15.77-18,28.15-34.2,35.13-3,1.29-6,3.1-9.58,1.88" style="fill:none;stroke:#333;stroke-linecap:round;stroke-linejoin:round;stroke-width:2px"/><path d="M123.88,309.34c-2-2.19-1.14-5.29-2.53-7.78-4.72-8.48-11.63-14.49-20-19.22a160.43,160.43,0,0,0-24.63-10.92c-3.71-1.35-7.62-2.09-10.88-4.52-.18-.13-.71.22-1.08.34" style="fill:none;stroke:#333;stroke-linecap:round;stroke-linejoin:round;stroke-width:4px"/><path d="M404.58,426.06c8.32,6.7,18.14,9.53,28.42,11.53a33.92,33.92,0,0,0,20-2.27,20.12,20.12,0,0,0,6.28-4.08c1.27-1.19,2.17-2.86,4-3.34" style="fill:none;stroke:#333;stroke-linecap:round;stroke-linejoin:round;stroke-width:2px"/><path d="M284.91,378c-5.2-4.12-10.86-7.6-16.19-11.52-3.44-2.53-7.6-1.36-11.18-3.16-5.05-2.55-10.41-1.29-15.85-.83-12.38,1-21.67,7.74-30.59,15.2-6,5-11.75,10.24-19.62,12.16-.43.11-.75.71-1.12,1.08" style="fill:none;stroke:#333;stroke-linecap:round;stroke-linejoin:round;stroke-width:4px"/><path d="M199.23,293.83c-2.32.91-3.94-1-5.89-1.54a18.82,18.82,0,0,0-16.94,3.48c-5.19,4-10.1,8.36-13.76,13.93a16.55,16.55,0,0,0-1.71,15.85c.55,1.41.15,2.51.26,3.74" style="fill:none;stroke:#333;stroke-linecap:round;stroke-linejoin:round;stroke-width:4px"/><path d="M477,311.19c-.15,2-1.57,3.31-3,4.4-3.8,2.92-6.33,7-9.57,10.38a5.1,5.1,0,0,0-1.06,6.25,3.82,3.82,0,0,1,.27,2.6c-1.88,10.07-5.43,19.44-12.17,27.32a68.73,68.73,0,0,1-19.18,15.91c-1.77,1-3.54,1.67-5.54.73" style="fill:none;stroke:#333;stroke-linecap:round;stroke-linejoin:round;stroke-width:2px"/><path d="M240.59,241.39c.11-5.42-1.53-10.59-2.33-15.87-1.52-10-2.93-19.92-3.92-29.93-1-10.34-2.35-20.64-3.09-31-.55-7.76-1-15.52-1.3-23.28-.3-8.85-.2-17.73,0-26.59.38-20.73,1.47-41.41,3.49-62.06.43-4.46.79-9.07.83-13.65a20.45,20.45,0,0,1,3.88-12.11c2.67-3.41,5.72-6.72,9.87-8.57a3.22,3.22,0,0,1,4.07,1.1c1.08,1.23,1.55,2.61.71,4.05-2.61,4.47-2.82,9.54-3.63,14.43-1,6-1.44,12.07-2.11,18.1-.62,5.64-1.23,11.31-1.62,17-.77,11.32-1.75,22.64-2.14,34-.3,8.75-.67,17.48-1.17,26.22-.69,11.93-.61,23.89-.29,35.82.25,9.62,1.5,19.2,2.08,28.82.4,6.78,1.13,13.55,1.38,20.31.29,7.9,1.81,15.55,3.09,23.27" style="fill:none;stroke:#333;stroke-linecap:round;stroke-linejoin:round;stroke-width:4px"/><path d="M423.42,110.27c-.88,3-3.27,5.12-4.85,7.73-4.9,8.13-10.25,16.11-13.1,25.19-2.06,6.57-4.39,13.22-4.58,20.27,0,1.33-.31,2.77,1.1,3.69" style="fill:none;stroke:#333;stroke-linecap:round;stroke-linejoin:round;stroke-width:4px"/><path d="M135,196.7a6.8,6.8,0,0,1,.76,3.69c-.07,12.76,6.13,22.37,15.51,30.27,5.94,5,13,8,20.32,10.29a5.76,5.76,0,0,1,1.82,1.17" style="fill:none;stroke:#333;stroke-linecap:round;stroke-linejoin:round;stroke-width:2px"/><path d="M418.61,442.31c-3.94,6.81-10.79,8.53-17.73,9.94-9.08,1.85-18.52,1.84-27.33,5.17a28.62,28.62,0,0,0-7.7,3.79c-1.05.82-2,.52-3,.67" style="fill:none;stroke:#333;stroke-linecap:round;stroke-linejoin:round;stroke-width:2px"/><path d="M229.88,90.7c-9.6-2.85-17,0-20.28,8.13-2.81,6.88-.74,13,3.71,18.42a25.65,25.65,0,0,0,15.83,9.27" style="fill:none;stroke:#333;stroke-linecap:round;stroke-linejoin:round;stroke-width:2px"/><path d="M408.27,416.45a58.34,58.34,0,0,0,38,9.52c17.61-1.72,31.46-9.44,38.81-26.5,1.64-3.8,1.52-7.92,2.51-11.84.37-1.47-.57-2.38-2.17-2.39" style="fill:none;stroke:#333;stroke-linecap:round;stroke-linejoin:round;stroke-width:4px"/><path d="M209.2,312.67c-1.84.58-3.51-.27-5.16-.78-6.8-2.07-13.66-3.12-20.69-1.42-2.6.64-4.26,1.85-4.17,5.16.15,5.58-7.31,13.35-12.82,14.77-2.39.62-4.6-1.78-7-.37" style="fill:none;stroke:#333;stroke-linecap:round;stroke-linejoin:round;stroke-width:4px"/><path d="M200,168.26c4.06-7.83,7.31-16,8.36-24.76,1-8-2.24-14.78-8.37-17.71-3.13-1.51-6.26-1.9-9.21.39-.52.41-1,.27-1.5.34" style="fill:none;stroke:#333;stroke-linecap:round;stroke-linejoin:round;stroke-width:2px"/><path d="M222.5,246.56c-2.63-.29-4.53-2.14-6.59-3.42-3.62-2.26-7.71-1.85-11.53-2.77a29.89,29.89,0,0,1-4-.84c-6.29-2.5-12.07-.67-18.15,1.35-7.17,2.38-13.69,6.26-21,8.41a6.54,6.54,0,0,1-4.88-.44c-10.39-4-16.63-12-21.36-21.51-3.41-6.84-5.07-14.11-4-21.77a2.92,2.92,0,0,0-.83-3" style="fill:none;stroke:#333;stroke-linecap:round;stroke-linejoin:round;stroke-width:4px"/><path d="M351.76,195.22c1.91-.28,2.9.73,4.14,2.15,5.54,6.34,11.67,11.92,19.85,14.89,7.46,2.7,15.12,3.29,22.92,3.28,2.24,0,4.63-.3,5.54,2.58" style="fill:none;stroke:#333;stroke-linecap:round;stroke-linejoin:round;stroke-width:2px"/><path d="M233.58,38.62c-1.82-.2-3.12.7-4.45,1.83-15.08,12.7-29,26.51-40.62,42.48-1,1.42-2.18,2.74-3.26,4.09-3.79-1.19-4.73,1.82-6.37,4-4.77,6.44-4.14,13.9-3.53,21.07a240.89,240.89,0,0,0,4.11,28.41c.95,4.56,2,9.15,3.17,13.7,1.24,4.92,2.27,9.89,3.55,14.81,1.71,6.57,3.88,13,5.69,19.53,3.49,12.7,8.64,24.79,13.5,37A74.55,74.55,0,0,0,211,237.33c.62,1,1.18,2.11.39,3.32" style="fill:none;stroke:#333;stroke-linecap:round;stroke-linejoin:round;stroke-width:4px"/><path d="M501.72,49a5.55,5.55,0,0,0,1.38-7.7c-1.86-3-4.36-5.71-8.4-6-7.06-.45-12.51,2.21-15.82,8.53-.89,1.71-2.9,1.76-3.67,3-3.06,4.8-6.93,9.19-7.17,15.45-.34,8.9-.46,17.85-2.53,26.6-1.66,7-3.85,13.88-10,18.41-2.33,1.71-5.13,2.76-7.72,4.12" style="fill:none;stroke:#333;stroke-linecap:round;stroke-linejoin:round;stroke-width:4px"/><path d="M145.67,191.16c4.27,4.38,8.28,8.93,13.61,12.28,10.05,6.32,20.82,7.63,32.18,5.72,2.07-.35,3.95-1.88,5.92-2.86" style="fill:none;stroke:#333;stroke-linecap:round;stroke-linejoin:round;stroke-width:2px"/><path d="M225.82,305.65c.8,3.34-1.4,6-2.3,8.84-2.94,9.4-5.14,19.18-11.75,27-4,4.73-8,9.46-12.22,14-2.41,2.61-3.2,5.27-1.8,8.54" style="fill:none;stroke:#333;stroke-linecap:round;stroke-linejoin:round;stroke-width:4px"/><path d="M248.72,361.05c-1.76-4.15-6-4-9.26-4.66-13.16-2.52-25.4.44-37.34,6.38-8.68,4.31-15.72,10.51-22.81,16.78a22.35,22.35,0,0,0-6.49,9.5c-.86,2.41-3.33,4.28-3.88,7.09" style="fill:none;stroke:#333;stroke-linecap:round;stroke-linejoin:round;stroke-width:4px"/><path d="M348.07,184.51a9.35,9.35,0,0,1,2.18,5.17c.15,5,2.3,9.55,3,14.41.26,2,1.69,2.83,2.87,4.16,4.42,5,9.92,8.36,15.69,11.23a31.47,31.47,0,0,0,10.66,3c4.55.46,9.23.57,13.67-1.33,2.14-.91,4.48-1.36,6.62-2.28,3.14-1.35,5.62-.36,7.75,1.9a8.19,8.19,0,0,1,1.84,9.2c-1.33,3.29-4.1,5.54-6.67,7.71-7,5.93-5.93,16.85-.31,23.32s13,8.85,21.4,7.71c2.28-.31,4.88-.11,6.66-2.16" style="fill:none;stroke:#333;stroke-linecap:round;stroke-linejoin:round;stroke-width:4px"/><path d="M282.7,50.44C272.63,51.38,264,61,263.82,71.12c-.13,7.93,2.7,14.84,6.7,21.41a2.25,2.25,0,0,0,2.57,1.12" style="fill:none;stroke:#333;stroke-linecap:round;stroke-linejoin:round;stroke-width:2px"/><path d="M186.3,172.32a41.91,41.91,0,0,1-14.37,6.79c-11.14,2.62-21.17.6-30.69-5.31-1.74-1.08-3.22-2.73-5.54-2.59" style="fill:none;stroke:#333;stroke-linecap:round;stroke-linejoin:round;stroke-width:2px"/><path d="M362.11,319c.23,3.89,3.62,6.44,4.14,10.33.82,6,1.4,12,.69,18.11-.8,6.86-1.81,13.65-4.85,19.93C356,380,347.42,390.19,333.67,395c-1.74.61-3.56,1.06-4.81,2.59" style="fill:none;stroke:#333;stroke-linecap:round;stroke-linejoin:round;stroke-width:4px"/><path d="M415.29,470a4.4,4.4,0,0,1-1.08,3c-6.92,8.81-16.09,13.63-27,15.5-10.43,1.8-20.94.11-31.39.76-9,.56-17.81,2.08-25.9,6.55-1.7.94-3.11,1.59-2.91,3.76" style="fill:none;stroke:#333;stroke-linecap:round;stroke-linejoin:round;stroke-width:2px"/><path d="M408.64,437.5c-4,5.51-10,7.46-16.26,8.83-8.42,1.87-16.71,3.9-24,8.85-3.69,2.5-6.14,5.54-6.61,10" style="fill:none;stroke:#333;stroke-linecap:round;stroke-linejoin:round;stroke-width:2px"/><path d="M121.67,217.38a4.85,4.85,0,0,1,.44,3.34c-.94,5.3-.73,10.5,1.72,15.52,1.5,3.07,2.28,6.49,3.79,9.55a32.86,32.86,0,0,0,14,14.35,12.8,12.8,0,0,1,2.91,1.93" style="fill:none;stroke:#333;stroke-linecap:round;stroke-linejoin:round;stroke-width:2px"/><path d="M396.45,16.09c4.05,3,8.7,5,12.27,8.79a27,27,0,0,1,7.54,19.28c-.05,6-1.71,11.89-6.51,16.25" style="fill:none;stroke:#333;stroke-linecap:round;stroke-linejoin:round;stroke-width:2px"/><path d="M363.58,112.86c-.11,5.45-3,10-6,13.93a54.48,54.48,0,0,1-27.93,19.33,7.86,7.86,0,0,1-5.18-.39" style="fill:none;stroke:#333;stroke-linecap:round;stroke-linejoin:round;stroke-width:2px"/><path d="M157.12,112.86c-6.79,1.61-11.43,6.43-14.53,12a25,25,0,0,0-3.19,16.48,11,11,0,0,0,4.81,7.38c6.44,4.42,13.41,7,21.41,6.32,4.51-.38,8.29-2.52,12.18-4.48,1-.52,2-1.21,3-1.83" style="fill:none;stroke:#333;stroke-linecap:round;stroke-linejoin:round;stroke-width:4px"/><path d="M347,180.08c1.41,2.51.14,4.39-1,6.69-4.52,9.08-9.95,17.48-17.49,24.29-6.61,6-14.81,9-23.25,11.44a6.93,6.93,0,0,1-2.57-.32" style="fill:none;stroke:#333;stroke-linecap:round;stroke-linejoin:round;stroke-width:2px"/><path d="M248.72,403.9c-.54,2.16-2.45,3.3-4.1,4-9.22,3.71-18.06,8.25-27.25,12-7.05,2.91-14.05,2.62-21.07,1.22a15,15,0,0,1-8.74-5.68,56.85,56.85,0,0,1-16.77,5.83c-2.63.47-3.52,3.12-5.44,4.56a63,63,0,0,0-17.88,21.08c-4.18,8-7.6,16.73-8.94,26-1,7.17-1.81,14.23-1,21.45a9.26,9.26,0,0,1-.71,3.68,7.36,7.36,0,0,0,.4,5.55" style="fill:none;stroke:#333;stroke-linecap:round;stroke-linejoin:round;stroke-width:4px"/><path d="M355.83,321.16c2,3.61.3,7.14-.86,10.3-3.25,8.83-6.77,17.56-13.12,24.84-2.8,3.22-6.09,5.75-9.27,8.47-.75.63-1.51.16-2.24.34" style="fill:none;stroke:#333;stroke-linecap:round;stroke-linejoin:round;stroke-width:2px"/><path d="M478.08,51.18c-2,1.66-1.21,4-1,5.9.66,7.11,3.44,13.69,5.91,20.29a56.81,56.81,0,0,1,2.88,13.32c1.56,12.83-4.07,22.52-13.28,30.68-1,.88-2.28,1.67-2.24,3.3" style="fill:none;stroke:#333;stroke-linecap:round;stroke-linejoin:round;stroke-width:2px"/><path d="M400.89,13.87c4.53,2.38,9.41,4,13.7,7,7,4.84,10.27,12.08,12.77,19.67,1.22,3.72,2.63,7.49,2.08,11.79-.92,7.05-2.2,13.83-6.76,19.56" style="fill:none;stroke:#333;stroke-linecap:round;stroke-linejoin:round;stroke-width:2px"/><path d="M372.08,11.29c-2.45-2.51-5.76-2.42-8.87-3A135.91,135.91,0,0,0,328.5,6.9c-4,.34-8,.42-11.84,1.75-.49.18-1.21-.32-1.83-.5" style="fill:none;stroke:#333;stroke-linecap:round;stroke-linejoin:round;stroke-width:4px"/><path d="M139,154.22c3.47,2.41,5.88,6.06,10,7.8,11.84,5.07,23.2,5.22,34-2.63" style="fill:none;stroke:#333;stroke-linecap:round;stroke-linejoin:round;stroke-width:2px"/><path d="M149.37,186.72c.08,4.1,3.64,5.15,6.32,6.17,12.09,4.61,24.33,6.11,36.52.11" style="fill:none;stroke:#333;stroke-linecap:round;stroke-linejoin:round;stroke-width:2px"/><path d="M125.36,214.05c2,2.17,1,4.94,1.41,7.4,2.66,15.23,10.62,26.89,23.33,35.45" style="fill:none;stroke:#333;stroke-linecap:round;stroke-linejoin:round;stroke-width:2px"/><path d="M72.17,270.93c-.49,3.87,2,6.92,3,10.32,2.66,8.32,5,16.76,9.44,24.45,1.75,3.05,3.91,5.82,5.86,8.66,1.45,2.13,4.81,3.33,7.56,4.12,6.16,1.79,11.52,5.1,16.88,8.35a22.15,22.15,0,0,0,4.14,1.72" style="fill:none;stroke:#333;stroke-linecap:round;stroke-linejoin:round;stroke-width:4px"/><path d="M250.2,267.24c-3.44,2.51-5.21,6-6.72,9.95-2.51,6.47-4.49,13.26-4.81,20-.34,7.31-.16,14.92,2.27,22.16,2.61,7.8,5.58,15.31,11.37,21.5,1.87,2,2.32,5.23,3.85,7.63,2.51,3.94,5.27,7.73,8.12,11.45a6.15,6.15,0,0,1,1.43,4.47" style="fill:none;stroke:#333;stroke-linecap:round;stroke-linejoin:round;stroke-width:4px"/><path d="M380.57,32.71c2.2,2,5.13,2.12,7.77,2.9a8.38,8.38,0,0,1,4.46,3c3,3.78,6.48,7.18,9.09,11.18s4.76,7.93,4.76,13.23a75,75,0,0,1-2.32,18.86c-3.05,11.85-11,19.31-20.8,25.46-.89.57-1.73,1.23-2.59,1.84" style="fill:none;stroke:#333;stroke-linecap:round;stroke-linejoin:round;stroke-width:4px"/><path d="M296,9.44c-4.71-.55-9.26.79-13.62,2-7.9,2.19-15.89,4.22-23.38,7.84-1.82.88-3.19,2.79-5.47,2.72" style="fill:none;stroke:#333;stroke-linecap:round;stroke-linejoin:round;stroke-width:4px"/><path d="M197.75,266.5c2.66,1.08,2.57,3.86,3.78,5.86,2.36,3.93,4.82,7.79,6.93,11.87,3.89,7.55,6.69,15.41,7,24a11.15,11.15,0,0,0,.71,2.58" style="fill:none;stroke:#333;stroke-linecap:round;stroke-linejoin:round;stroke-width:4px"/><path d="M276.79,134.28c8.08,3.72,12,10.56,13.62,18.84,2.07,10.58.87,21-1.7,31.41-1.61,6.57-4.46,12.79-5,19.82-4.39.52-8.31-1.46-12.41-1.38" style="fill:none;stroke:#333;stroke-linecap:round;stroke-linejoin:round;stroke-width:2px"/><path d="M500.61,153.85c-3.41,5-6.53,10.06-7.46,16.24-.43,2.9-2.74,4.77-5.11,6.27-3.25,2-7.69,0-10.41-4-1.65-2.45-1.1-5.52-2.88-7.81" style="fill:none;stroke:#333;stroke-linecap:round;stroke-linejoin:round;stroke-width:2px"/><path d="M463.67,422.73c1.5,8.39,0,13.85-6.65,18.82-6.95,5.22-14.57,6.67-23.29,5.35-9.58-1.46-17.53-6.35-25.76-10.63-3.86-2-6.88-4.15-11.6-1.9-3.11,1.47-7.08,1-10.62,1.68-12.3,2.25-21.05,8.91-25.93,20.63-1.56,3.77-4,7.18-1.82,11.5.3.59,0,1.46,0,2.2" style="fill:none;stroke:#333;stroke-linecap:round;stroke-linejoin:round;stroke-width:4px"/><path d="M229.51,153.48c-2.23-.22-3.08,1.49-4,3-5.52,8.39-6.2,17-1.15,25.87,2.2,3.88,4,8,8.9,9.22" style="fill:none;stroke:#333;stroke-linecap:round;stroke-linejoin:round;stroke-width:2px"/><path d="M427.11,451.54c-4.1,2.78-7.59,6.37-12.16,8.55a43.25,43.25,0,0,1-17,3.94,203.86,203.86,0,0,1-21.41,0c-5-.32-9.54,1.73-14.42,1.64-1.51,0-2.5,1.37-3.69,2.17" style="fill:none;stroke:#333;stroke-linecap:round;stroke-linejoin:round;stroke-width:2px"/><path d="M337.73,182.29c1.06,1.35.14,2.66-.42,3.67-5.9,10.56-13.35,19.53-24.63,24.9a17.46,17.46,0,0,1-7.82,1.72" style="fill:none;stroke:#333;stroke-linecap:round;stroke-linejoin:round;stroke-width:2px"/><path d="M188.52,179c-3,.59-4.71,3.24-7.34,4.53A46.76,46.76,0,0,1,166,188c-6.19.76-11.86-1.17-17.73-2-4.44-.66-6.82-4.59-9.48-7.46-5.43-5.84-6.6-16.72-.92-23.92,1.49-1.89,1.25-4.89,3.74-6.25" style="fill:none;stroke:#333;stroke-linecap:round;stroke-linejoin:round;stroke-width:4px"/><path d="M384.64,35.29C385.39,49.83,377.35,59,365.8,66a6.24,6.24,0,0,1-5.91.36" style="fill:none;stroke:#333;stroke-linecap:round;stroke-linejoin:round;stroke-width:2px"/><path d="M194.79,270.19c-10.45-.38-18.81,4.53-26.55,10.76a45.42,45.42,0,0,0-9.56,10.72,37.33,37.33,0,0,0-5.15,13.26,40.1,40.1,0,0,0-.18,16.62,11.57,11.57,0,0,0,1.85,4.69c3,3.43,4.78,7.6,7.48,11.16,1.08,1.43,2.76,1.5,4.41,1.5,6.28,0,12.57-.17,18.84.07,2.82.1,6-.14,8.13,2.51" style="fill:none;stroke:#333;stroke-linecap:round;stroke-linejoin:round;stroke-width:4px"/><path d="M141.24,132.06a30.13,30.13,0,0,0,18.08,10.8c5.8,1.06,11.29,1,16.63-1.57a4.79,4.79,0,0,1,3-.73" style="fill:none;stroke:#333;stroke-linecap:round;stroke-linejoin:round;stroke-width:2px"/><path d="M114.65,235.11c2.32,2,.89,4.94,1.71,7.43,3.92,12,9.77,22.35,20.82,29.13.09.05.24,0,.37,0" style="fill:none;stroke:#333;stroke-linecap:round;stroke-linejoin:round;stroke-width:2px"/><path d="M342.9,58.93c-4-5-8.82-8.11-15.51-8.18-7.8-.07-12.88,4.07-17,10-1.08,1.56-2.41,3-2.23,5.16" style="fill:none;stroke:#333;stroke-linecap:round;stroke-linejoin:round;stroke-width:2px"/><path d="M157.31,250.25c-1.85,4.56-5.62,7.63-9.14,10.61-6.24,5.29-10.29,11.8-13.28,19.28-2,5-3.92,10-3.68,15.54.09,2.23.27,4.26,1.91,5.91" style="fill:none;stroke:#333;stroke-linecap:round;stroke-linejoin:round;stroke-width:4px"/><path d="M387.22,167.89c-1.45-14,2.85-26.71,8.5-39.15,4.66-3.48,6.85-9.05,11-13,3.62-3.38,7.07-7,10.34-10.71,2.84-3.24,2.56-6.78-.32-9.91-.7-.26-.95.41-1.09.73-3.68,8.33-9.91,14.91-15.16,22.16-1.2,1.65-2.26,3.41-3.33,5.16-.76,1.27-1.21,2.62-.38,4.06" style="fill:none;stroke:#333;stroke-linecap:round;stroke-linejoin:round;stroke-width:2px"/><path d="M407.53,60.41c.91.08,1.77-.15,2.62.71,5.69,5.69,11.25,11.45,15.9,18.09,5.93,8.45,11.34,17.23,17.19,26-1.53.62-2.8,1.42-3.18,2.89-1.67,6.51-6,11.22-10.77,15.47-9.34,8.28-15.61,18.55-20.28,29.95-2.84,7-6.32,13.69-8.12,21.06" style="fill:none;stroke:#333;stroke-linecap:round;stroke-linejoin:round;stroke-width:4px"/><path d="M283.81,107.69c7.33,6.5,15.89,11.11,24.33,16,2.51,1.44,3.77,1,5.26-1.15,1.14-1.69,2.08-3.89,4.75-3.72" style="fill:none;stroke:#333;stroke-linecap:round;stroke-linejoin:round;stroke-width:2px"/><path d="M348.81,323.38c.76,3.74-1.61,6.71-2.68,9.94a44.33,44.33,0,0,1-14.27,20.39,3.84,3.84,0,0,1-3,1.06" style="fill:none;stroke:#333;stroke-linecap:round;stroke-linejoin:round;stroke-width:2px"/><path d="M393.13,18.31C398,23.66,403,29,405.21,36.07c1.58,5.06,3.55,10.49-.63,15.48" style="fill:none;stroke:#333;stroke-linecap:round;stroke-linejoin:round;stroke-width:2px"/><path d="M136.81,400.57c5.2,1.7,8.67,5.78,12.52,9.27,5,4.54,10,8.92,17,10,1.05.16,2,1.17,3,1.78" style="fill:none;stroke:#333;stroke-linecap:round;stroke-linejoin:round;stroke-width:4px"/><path d="M147.52,120.24c1.9,7.73,7.82,10,14.75,11.55,5.37,1.18,10.24.21,15.17-1.57" style="fill:none;stroke:#333;stroke-linecap:round;stroke-linejoin:round;stroke-width:2px"/><path d="M197.75,357.17c-2.27-3.68,0-7.05.76-10.52.35-1.67,1.44-3.61-.45-4.71a4.7,4.7,0,0,0-4.77.22,61.45,61.45,0,0,1-32.11,8c-6.81-.13-13-1.87-19.2-4.21" style="fill:none;stroke:#333;stroke-linecap:round;stroke-linejoin:round;stroke-width:4px"/><path d="M135.7,400.94c-.19,5.72,3.73,9.53,6.72,13.61,4.44,6.06,10.4,10.59,16.55,14.83" style="fill:none;stroke:#333;stroke-linecap:round;stroke-linejoin:round;stroke-width:2px"/><path d="M508.73,186.35a9.62,9.62,0,0,0-7.29,6,50.71,50.71,0,0,0-3.05,21.75" style="fill:none;stroke:#333;stroke-linecap:round;stroke-linejoin:round;stroke-width:4px"/><path d="M354.35,112.12a4.77,4.77,0,0,1-1.14,3.67c-5,7.08-11,13-19.51,16a6.54,6.54,0,0,1-4.47.28" style="fill:none;stroke:#333;stroke-linecap:round;stroke-linejoin:round;stroke-width:2px"/><path d="M303.38,310.82c-1.72,4.23-.4,8.62-.66,12.93-.43,7.36-1.86,14.55-3.1,21.78-.16.94-1.16,1.73-1.78,2.59" style="fill:none;stroke:#333;stroke-linecap:round;stroke-linejoin:round;stroke-width:4px"/><path d="M157.86,291.62c-5-2.31-11.34-1-16.16,4.14-3.26,3.47-7.52,5.67-10.55,9.42a14.62,14.62,0,0,1-6.14,4c-4.11,1.59-5,3.75-4.9,8.26.06,3.56-.25,7.19-.35,10.72a63.08,63.08,0,0,0,.49,10.69c.76,5.33,1.26,10.74,2.93,15.88,3.39,10.45,9.43,18.5,20.66,21.38a12.06,12.06,0,0,1,3.31,1.53" style="fill:none;stroke:#333;stroke-linecap:round;stroke-linejoin:round;stroke-width:4px"/><path d="M198.12,260.22c-.82,3.09-1.07,6.24-2.34,9.34-1.07,2.58-.11,6.06.15,9.13a54.72,54.72,0,0,0,4,15c1.95,5,4.14,10.3,7.83,14.5,1.86,2.12,1.71,5.21,3.94,7.14.41.36.17,2.14-.35,2.83-4.88,6.5-7.35,14.19-10.62,21.47a6.58,6.58,0,0,1-1.51,2.21" style="fill:none;stroke:#333;stroke-linecap:round;stroke-linejoin:round;stroke-width:4px"/><path d="M228.77,236.58c5.37,5.57,11.88,6.19,19.23,5.32,6.38-.75,12.79.23,17.32,5.78,1.21,1.49,1.6,3.24,3.54,4.66,3.63,2.65,8.12,2.73,11.65,5.25s7.23,4.82,9.19,8.92a3.93,3.93,0,0,0,3.34,2.21" style="fill:none;stroke:#333;stroke-linecap:round;stroke-linejoin:round;stroke-width:4px"/><path d="M316.68,396.88a5.4,5.4,0,0,0,4,1c5.75-1.49,10.48,1.24,15.34,3.41,5.55,2.48,10.32,6.22,15.43,9.44,9.42,5.94,13.32,16.05,19.73,24.24,1.09,1.4,2.67,2.75,3.07,4.71" style="fill:none;stroke:#333;stroke-linecap:round;stroke-linejoin:round;stroke-width:2px"/><path d="M135.7,160.5a2.33,2.33,0,0,1,1.5,1.1c5.18,7.76,13,9.91,21.76,10.82a36.86,36.86,0,0,0,18.86-3c2.43-1,4-3.35,6.63-4.09" style="fill:none;stroke:#333;stroke-linecap:round;stroke-linejoin:round;stroke-width:2px"/><path d="M329.23,182.66c-3.7,8.84-10.28,15-18.46,19.59-1.15.65-2.22.21-3.33,0" style="fill:none;stroke:#333;stroke-linecap:round;stroke-linejoin:round;stroke-width:2px"/><path d="M219.54,51.18a76.4,76.4,0,0,1-1.9,16.22l-9.18-4.77" style="fill:none;stroke:#333;stroke-linecap:round;stroke-linejoin:round;stroke-width:2px"/><path d="M386.48,408c-10.24-.52-17.76,4.23-23.64,12.19" style="fill:none;stroke:#333;stroke-linecap:round;stroke-linejoin:round;stroke-width:2px"/><path d="M244.66,273.15c-4.32-1.45-8.35-3.77-12.93-4.42a42.42,42.42,0,0,0-8.5-.78c-6.28.36-12.57,1.12-18.84-.3a4.11,4.11,0,0,0-3.69.7" style="fill:none;stroke:#333;stroke-linecap:round;stroke-linejoin:round;stroke-width:4px"/><path d="M402.36,387.64c-9.12,3.72-14.81,9.94-14.77,20.32" style="fill:none;stroke:#333;stroke-linecap:round;stroke-linejoin:round;stroke-width:2px"/><path d="M165.62,369.92c-2.7,1.24-5.7,1.14-8.48,1.9-5.9,1.62-9.81,5.57-12.64,11-3,5.82-5.73,11.79-8.43,17.76" style="fill:none;stroke:#333;stroke-linecap:round;stroke-linejoin:round;stroke-width:4px"/><path d="M393.5,343.69c-1.72,5.25-.26,9.83,3.48,14.14-8.61,5.95-10.88,13.51-6.44,22.8" style="fill:none;stroke:#333;stroke-linecap:round;stroke-linejoin:round;stroke-width:2px"/><path d="M162.29,338.15c-5.24,2.13-11.17,1.71-16.25,4.43a39.2,39.2,0,0,0-9.23,6.28" style="fill:none;stroke:#333;stroke-linecap:round;stroke-linejoin:round;stroke-width:4px"/><path d="M265.34,133.54c-.74-.12-1.77-.62-2.17-.31-5.6,4.31-11.1,8.73-10.41,16.93,0,.24-.22.49-.48,1a16.86,16.86,0,0,0-9.84-2.12" style="fill:none;stroke:#333;stroke-linecap:round;stroke-linejoin:round;stroke-width:2px"/><path d="M420.09,333c-4.35-.2-8.36,1.7-12.56,2.14-13.63,1.45-26.15,7.25-39.52,9.68" style="fill:none;stroke:#333;stroke-linecap:round;stroke-linejoin:round;stroke-width:2px"/><path d="M390.18,19.78c3.84,5,5.86,10.85,7,17,.21,1.18.32,2.55-1.08,3.32" style="fill:none;stroke:#333;stroke-linecap:round;stroke-linejoin:round;stroke-width:2px"/><path d="M133.85,373.24a11.11,11.11,0,0,0-1.9,5.53,53.05,53.05,0,0,0,1.6,19.2c.28,1.12.67,2.73,2.52,2.6" style="fill:none;stroke:#333;stroke-linecap:round;stroke-linejoin:round;stroke-width:2px"/><path d="M174.11,103.25h-4.43a11.89,11.89,0,0,0-11.82,8.87c-.67,2.34,1.23,4.93,4.79,7,4.37,2.59,8.63,2.19,12.94,0" style="fill:none;stroke:#333;stroke-linecap:round;stroke-linejoin:round;stroke-width:4px"/><path d="M396.82,358.1c8.05,1.66,16.36,1.07,24.39,2.91a12.28,12.28,0,0,1,3.75,1c.79.44,2.46,1.62,3.44-.25" style="fill:none;stroke:#333;stroke-linecap:round;stroke-linejoin:round;stroke-width:2px"/><path d="M290.08,241c-6.16-1.2-11.48-.17-15.16,5.52-.84,1.3-1.67,2.85-3.67,2.6" style="fill:none;stroke:#333;stroke-linecap:round;stroke-linejoin:round;stroke-width:2px"/><path d="M475.49,362.9c8.3,5.1,11.21,12.81,10.71,22.16" style="fill:none;stroke:#333;stroke-linecap:round;stroke-linejoin:round;stroke-width:4px"/><path d="M154.17,350.71c2.24,5.24,6.11,9.47,9,14.35a80.94,80.94,0,0,0,13.21,16.67" style="fill:none;stroke:#333;stroke-linecap:round;stroke-linejoin:round;stroke-width:4px"/><path d="M356.93,8.7c-2.94,5.76-8.57,8.92-13,13.19-1.3,1.24-2.09,3.14-4,4-4.68-5-8.11-10.92-12.84-15.75-.43-.44-.29-1.44-.41-2.18" style="fill:none;stroke:#333;stroke-linecap:round;stroke-linejoin:round;stroke-width:2px"/><path d="M338.1,324.86c-1.71,7.08-4.21,13.63-11.45,17" style="fill:none;stroke:#333;stroke-linecap:round;stroke-linejoin:round;stroke-width:2px"/><path d="M379.09,357.36c-1.6,1.72-3.29,3.37-4.78,5.19-3.24,3.95-2.2,8.47,0,12.18.79,1.36,2.17,1.38,3.35,1.82,3.12,1.15,6.38,1.9,9.23,3.71" style="fill:none;stroke:#333;stroke-linecap:round;stroke-linejoin:round;stroke-width:2px"/><path d="M372.45,396.51c-2.83.24-5.68.36-8.49.76-5.07.73-7.72,3.91-8.52,8.84a15.11,15.11,0,0,1-.72,2.22" style="fill:none;stroke:#333;stroke-linecap:round;stroke-linejoin:round;stroke-width:2px"/><path d="M285.28,11.66c1.21,2-.8,3-1.49,4.42a50.38,50.38,0,0,1-3.62,6.33c-1.35,2-2.22,4.32-3.92,6.13-4-2.33-6.8-6.25-10.54-9.13" style="fill:none;stroke:#333;stroke-linecap:round;stroke-linejoin:round;stroke-width:2px"/><path d="M497.65,218.49c5.29,1.71,10.55,3.52,16.25,2.95" style="fill:none;stroke:#333;stroke-linecap:round;stroke-linejoin:round;stroke-width:4px"/><path d="M432.28,103.62c-.81,5.2-.11,10.35.37,15.51" style="fill:none;stroke:#333;stroke-linecap:round;stroke-linejoin:round;stroke-width:4px"/><path d="M244.66,198.54c5.1,1.32,10.06,3.41,15.51,3" style="fill:none;stroke:#333;stroke-linecap:round;stroke-linejoin:round;stroke-width:2px"/><path d="M160.45,110.27c4.13,4.85,8.79,6,14.77,3.69" style="fill:none;stroke:#333;stroke-linecap:round;stroke-linejoin:round;stroke-width:2px"/><path d="M347,111c-1.61,5.47-6.56,7.51-10.76,10.27a2.17,2.17,0,0,1-2.53-.3" style="fill:none;stroke:#333;stroke-linecap:round;stroke-linejoin:round;stroke-width:2px"/><path d="M449.27,87.37c-.43,3.73-1.8,7.19-3,10.71-.45,1.37-.88,2.71,0,4.07" style="fill:none;stroke:#333;stroke-linecap:round;stroke-linejoin:round;stroke-width:2px"/><path d="M368.75,164.93c-4.3,1.74-6.89,5.73-10.69,8.16a54.61,54.61,0,0,1-17,7.49,44.06,44.06,0,0,1-27-1.61" style="fill:none;stroke:#333;stroke-linecap:round;stroke-linejoin:round;stroke-width:2px"/><path d="M373.92,375.09c-6.33.55-11.9,5.74-10.73,12.56a3.89,3.89,0,0,1-.35,1.47" style="fill:none;stroke:#333;stroke-linecap:round;stroke-linejoin:round;stroke-width:2px"/><path d="M417.14,157.18c-3.94,2.16-6.69,5.64-9.51,8.94a4.58,4.58,0,0,1-4.16,1.77" style="fill:none;stroke:#333;stroke-linecap:round;stroke-linejoin:round;stroke-width:2px"/><path d="M379.09,342.58c-1.52,4.42-2.28,8.77.71,13a1.08,1.08,0,0,1-.34,1.45" style="fill:none;stroke:#333;stroke-linecap:round;stroke-linejoin:round;stroke-width:2px"/><path d="M358.78,388.38c-5.65,1.22-9.57,4.42-11.45,10" style="fill:none;stroke:#333;stroke-linecap:round;stroke-linejoin:round;stroke-width:2px"/><path d="M426.74,149.79c2.31-2.86,5.82-4.51,7.78-7.74A2.29,2.29,0,0,1,436,141c4.79-.27,9.45-2.72,14.44-.5,2.23,1,4.88,1.07,7.34,1.56" style="fill:none;stroke:#333;stroke-linecap:round;stroke-linejoin:round;stroke-width:2px"/><path d="M372.45,312.3c2.82,5.06,8.06,5.9,12.92,7.39" style="fill:none;stroke:#333;stroke-linecap:round;stroke-linejoin:round;stroke-width:2px"/><path d="M421.2,133.17c3.84,3.54,6.82,8.27,12.56,9.23" style="fill:none;stroke:#333;stroke-linecap:round;stroke-linejoin:round;stroke-width:2px"/><path d="M431.54,128c2.17,3.94,4.64,7.78,4.43,12.56" style="fill:none;stroke:#333;stroke-linecap:round;stroke-linejoin:round;stroke-width:2px"/><path d="M238,297.53c-2.85-.44-4.83,1.09-6.65,3-4.08,4.17-9.69,6.15-14.09,9.91-1.79,1.52-2.4,4.57-5.49,4.49" style="fill:none;stroke:#333;stroke-linecap:round;stroke-linejoin:round;stroke-width:4px"/><path d="M455.18,90.33c-2.34,6-5.86,11.06-11.82,14" style="fill:none;stroke:#333;stroke-linecap:round;stroke-linejoin:round;stroke-width:2px"/><path d="M297.1,53c4.82,2.65,7.78,7,10.71,11.45" style="fill:none;stroke:#333;stroke-linecap:round;stroke-linejoin:round;stroke-width:2px"/><path d="M441.14,140.93c2.22,3,5.75,4.32,8.49,6.66.92.79,2.51.93,2.59,2.57" style="fill:none;stroke:#333;stroke-linecap:round;stroke-linejoin:round;stroke-width:2px"/><path d="M385,320.06c-4.38,3.63-9.38,6.48-13.29,10.71" style="fill:none;stroke:#333;stroke-linecap:round;stroke-linejoin:round;stroke-width:2px"/><path d="M354,207.78c-1.73,4.9-.77,9.66.74,14.4" style="fill:none;stroke:#333;stroke-linecap:round;stroke-linejoin:round;stroke-width:2px"/><path d="M387.59,380.63c6.22,1,11.46,4.36,17,7.05a66.12,66.12,0,0,1,5.93,3.66" style="fill:none;stroke:#333;stroke-linecap:round;stroke-linejoin:round;stroke-width:2px"/><path d="M378.36,386.17a12.62,12.62,0,0,0-2.59,7.75c0,2.56.15,4.59,2.86,6.42,5.87,4,10.45,9.44,15.24,14.64" style="fill:none;stroke:#333;stroke-linecap:round;stroke-linejoin:round;stroke-width:2px"/><path d="M229.14,538q1.49,7,3,14" style="fill:none;stroke:#333;stroke-linecap:round;stroke-linejoin:round;stroke-width:2px"/><path d="M353.61,384c4.67,4,10.6,5.95,15.63,9.44,1.93,1.33,3.12,4.24,6.16,3.86" style="fill:none;stroke:#333;stroke-linecap:round;stroke-linejoin:round;stroke-width:2px"/><path d="M395.72,312.67l-10,7" style="fill:none;stroke:#333;stroke-linecap:round;stroke-linejoin:round;stroke-width:2px"/><path d="M361.37,372.13c2.88,1.64,6.7.7,9.23,3.33" style="fill:none;stroke:#333;stroke-linecap:round;stroke-linejoin:round;stroke-width:2px"/><path d="M368,333l3.62-2.87c.7,5.34,3.64,8.86,7.46,11.74" style="fill:none;stroke:#333;stroke-linecap:round;stroke-linejoin:round;stroke-width:2px"/><path d="M380.2,357a59,59,0,0,1,15.15,1.48" style="fill:none;stroke:#333;stroke-linecap:round;stroke-linejoin:round;stroke-width:2px"/><path d="M341.05,403.16c-.15-1.13.31-1.69,1.48-1.88s2.5-.59,4.16-1c2.95,2.32,5.15,5.88,8.06,8.76,1.18,1.17.49,2.48.71,3.72" style="fill:none;stroke:#333;stroke-linecap:round;stroke-linejoin:round;stroke-width:2px"/><path d="M386.85,381c-2.63,1.39-6.13,1.27-7.76,4.43" style="fill:none;stroke:#333;stroke-linecap:round;stroke-linejoin:round;stroke-width:2px"/><path d="M372.45,329.29c-1.62-2-3.95-2.3-6.28-2.59" style="fill:none;stroke:#333;stroke-linecap:round;stroke-linejoin:round;stroke-width:2px"/><path d="M341.42,392.81l4.8,5.91" style="fill:none;stroke:#333;stroke-linecap:round;stroke-linejoin:round;stroke-width:2px"/></g></g></svg>