<?xml version="1.0" encoding="utf-8"?>
<!-- Generator: Adobe Illustrator 26.0.1, SVG Export Plug-In . SVG Version: 6.00 Build 0)  -->
<svg version="1.1" id="Layer_1" xmlns="http://www.w3.org/2000/svg" xmlns:xlink="http://www.w3.org/1999/xlink" x="0px" y="0px"
	 viewBox="0 0 627.1 554" style="enable-background:new 0 0 627.1 554;" xml:space="preserve">
<style type="text/css">
	.st0{fill:none;stroke:#333333;stroke-width:4;stroke-linecap:round;stroke-linejoin:round;}
</style>
<g id="Layer_2_00000057150251687806251480000001270310379375773575_">
	<g id="Layer_1-2">
		<path class="st0" d="M325,441.7c-6.8-9.2-7.7-20.3-9.8-31c-4.1-21.3-3.7-43.2,1.2-64.4c6.8-30,22-57.4,43.7-79.2
			c12.4-12.6,24.9-25.1,37.6-37.5c5.7-5.5,9-11.6,6.4-19.6c-2.1-6.4-2.8-13.1-4.1-19.6c-4.1-19.9-6.9-40.1-7.1-60.4
			c-0.2-18,0.1-36,2.1-53.9c1.9-17,6.5-33.3,9.7-50.2c0.6-3.2,5.7-17,1.9-19c-2.1-1.1-4.8,0-6.4,1.6c-3.4,3.2-6.5,6.7-9.2,10.4
			c-11.9,17.4-17.9,37.1-22.6,57.2c-3.7,15.8-6,31.9-6.7,48.1c-1.2,27.4,2.1,54.3,8.4,80.7c3,12.7,5.6,25.6,11.2,37.6"/>
		<path class="st0" d="M448.6,343.7c15.5-6.8,32.1-9.2,48.6-12.2c12.3-2.2,24.8-3.5,36.7-7.5c7.7-2.6,13.4-7.2,14.9-16.2
			c1.2-7.7,3.9-15.2,5.5-22.9c5.6-26.8,11.4-53.6,19.3-80c2.8-9.5,6.4-25.4,8.9-35"/>
		<path class="st0" d="M362.6,263.1c-5.4-6.7-6.5-15.1-8.8-22.9c-7.5-24.8-13-50.1-16.5-75.8c-2.6-20.1-3.3-40.3,0.1-60.3
			c2.7-15.6,6.9-30.9,20.2-41.7c4-3.2,8-5.4,13.1-2.4"/>
		<path class="st0" d="M314.6,406.5c-15.7-5.9-30.6-13.7-44.5-23.2c-6.6-4.3-12.5-9.5-17.7-15.5c-5.2-6.2-9.7-12.8-14.6-19.2
			c-20.7-26.6-34.9-57-50.6-86.5c-23.4-44-42.5-90.2-67-133.7c-7.5-13.3-15.7-26.2-24.7-38.6c-9-12.3-18.9-24-29.7-34.8
			c-5.5-5.4-11.1-10.7-17-15.6c-2.8-2.3-5.5-5-8.5-7c-3.8-2.5-7.6-4.9-11.4-7.4c-4.2-2.8-8.3-5.8-12.8-8c-4.6-2.3-9.3-4.3-14-6.2
			L2.3,11c8.4,1.9,16.7,4.3,24.8,7.2c4,1.4,8.1,2.9,12,4.7c3.4,1.6,6.6,3.4,9.8,5.4c13.3,7.7,25.9,16.6,37.5,26.6
			c11.6,10.1,22.4,21,32.5,32.6c13,14.6,25,30,36.1,46.1c11.9,17.7,25.6,36.1,34.2,55.7c7.8,17.6,20.7,33.1,35.4,45.4"/>
		<path class="st0" d="M361.7,430.3c-0.8,0.3-0.6-0.2-0.9-0.8c-10-23.8-18.5-47.5-15.2-74.3c0.7-5.9,2-8.1,6.3-10.6
			c25.1-14.5,52.4-23.3,80.1-30.7c25.8-7,52.4-11.3,79.1-12.7c12.7-0.6,17.5-6.3,21.2-16.1c1.4-3.8,2.7-7.6,4.1-11.4
			c4-11,7.9-22,12-32.9c5.6-14.9,13.7-29.1,20.5-43.4c7.1-14.9,14.4-29.7,22.8-44c9.6-16.4,20.3-31.7,31.1-47.3
			c-8.2-2.7-13.8,1.9-19.5,5.3c-23,13.5-38.6,34-52.2,56.3c-17.7,29-29.4,60.4-38.3,93c-3.6,13.2-7.6,26.3-9,40"/>
		<path class="st0" d="M464.5,305.5c-1.2-2.8,1.2-5,1.8-7.3c10.7-37.5,23-74.5,42.4-108.5c6.3-11.1,13.3-22.2,25.1-28.6
			c8.4-4.6,11.5-3.6,16.3,4.9"/>
		<path class="st0" d="M251.8,239.2c-2.3-4.9-5.1-9.4-6.6-14.6c-1.8-6-3.4-12.1-4.8-18.2c-2.7-11.7-4.7-23.5-5.7-35.5
			c-2.2-25.6-2.2-51.3,3-76.7c2.9-14,6.6-28,12-41.2s12.8-26.8,23.6-36.2L290.5,2c-12.6,5.7-26.6,10.4-36.6,20.2
			c-20.3,19.9-32.3,44.1-39,71.1c-7.6,30.9-8.2,62.2-5.1,93.8c1.3,12.8,2.6,25.9,5.1,38.7"/>
		<path class="st0" d="M467,409.1c-0.7-8.8,2.9-17,2-26.1c-3.1-33.7-29-49-56.7-48.7c-16.3,0.2-29.4,8.3-38.1,22
			c-3.8,6-7.8,5.7-13.3,4c-4.8-1.5-9.3-4.3-14.7-4.2"/>
		<path class="st0" d="M431.1,312.8c1.5-12.1,5.5-23.5,8.9-35.1c5.6-19.6,12.7-38.7,21.4-57.1c7.4-15.5,15.9-30.4,28.5-42.4
			c9.2-8.8,15.2-8.8,24.5,0"/>
		<path class="st0" d="M321,328.3c-1.5,0.4-2.3-0.8-3.3-1.6c-17.4-14.7-33-30.8-43.2-51.4c-7.2-14.4-12-29.2-10.7-45.7
			c1-12.4,10.5-16.4,20.7-15.2"/>
		<path class="st0" d="M315.2,347.9c-5.5,0.5-10.6-1.2-15.5-3.3c-32.2-14.4-56-53.3-52.3-92.1c1.1-11.4,4.7-15.4,14.7-15.5"/>
		<path class="st0" d="M460.5,413.2c-2.8-5.1-2.9-11.1-5.6-16.4c-9.9-19.3-26.2-26.7-44.1-21.1c-8.2,2.6-15.5,7.4-21.2,13.8
			c-9.2,10.3-16.6,21.9-23.1,34.1c-2.6,4.8-3.5,10.4-6.5,14.7c-5.6,8-17.5,11-26.7,7.4c-3.4-1.4-7-2.1-10.7-1.8
			c-22.1,1.2-42.9-2.6-58.7-20.1c-5.5-6-4.7-8.8,3.2-13"/>
		<path class="st0" d="M334,117c-9.2-5.4-12.7-5.3-17.9,1.7c-3.4,4.3-5.7,9.3-6.7,14.6c-8.6,53.9,1.4,107.8,32.1,153.3"/>
		<path class="st0" d="M312,374c-2.7-0.5-5.4-1.2-8.2-1.6c-32.2-5.3-58-26-63.5-59.6c-1.8-10.4-3.4-21.1,7.2-28.5"/>
		<path class="st0" d="M396.4,77.8c1.5,15.8,4,31.5,7.6,46.9c3.2,14.1,8.5,27.5,12.3,41.3c3,10.8,6.8,21.5,9.6,32.4
			c4.7,18.7,3.5,33.7-9.1,49.5c-13.6,17-32.7,28.4-46.5,45.2c-13.1,16-21.4,35.4-23.9,55.9"/>
		<path class="st0" d="M212.1,222.8c-5.3-17.5-10.6-35-15.9-52.5c-4.4-14.3-10.7-27-21.4-37.8c-6.1-6.3-11.1-5.7-17.9,0.7"/>
		<path class="st0" d="M440.3,380.1c2.5,5.2,1.5,11.3-2.4,15.5c-6.6,6.6-23.6,3.2-26.1-5.9c-2-7.2,3.4-13.2,9.8-15.4"/>
		<path class="st0" d="M397.4,324.7c4.8-16.5,9.5-33,14.3-49.5c6.9-24,16-43.6,34.1-61c6-5.7,9.3-5.5,16.3-0.1"/>
		<path class="st0" d="M194.1,162.5c-1.3-8.2-1.2-16.5,0.2-24.7c1.3-7.1,5-10.1,12.4-10.2"/>
		<path class="st0" d="M202.7,295.7c-4.6,6.2-2.7,13.7-3,20.4c-1.6,34.1,2.8,67.3,19.3,97.9c12.4,22.9,31.1,39.3,53.8,51.4
			c23.7,12.7,48.8,20.8,75.9,20.2c19.9-0.4,39.8-4.4,57.8-13.1c12.4-6,23.6-14.1,33.4-23.8c5.4-5.3,10.6-11.8,13.9-18.6
			c2.8-5.9,5-11.5,9.4-16.5c8.4-9.5,20.1-15.4,32.8-16.5c0.2,0,3.4-0.5,3.2-0.7c-4.5-3.4-8.3-7.5-12.9-10.6
			c-4.9-3.3-10.2-5.9-15.9-7.7"/>
		<path class="st0" d="M311.2,502.9c-9.2,3.7-14.2,9.1-13,14.7c1.4,6,5.3,10.5,11.4,11.2c5.8,0.7,10.4-1.9,13.2-7.9s0.2-9.8-3.3-14
			c-2.1-2.4-5.1-2.4-7.4-4"/>
		<path class="st0" d="M383,533.9c-7.9,0.7-12.3,4.5-11.4,9.8c0.9,5.3,6.1,8.9,11.4,8.2c4.6-0.6,6.5-4.1,7.1-7.5
			c0.9-4.8-1.6-8.6-6.3-10.6"/>
		<path class="st0" d="M469.3,395.7c8.6-2.6,17.8-2.8,26.6-0.5"/>
		<path class="st0" d="M306.3,157.4c-10.5,2.4-16.5,11.6-20.1,21.7s-3.4,21.3-2.1,32c4.5,36.4,20.3,70.5,45.3,97.4"/>
		<path class="st0" d="M248.4,361.6c-4.8-6.4-3.7-15.5,2.6-20.5l-1.1-0.5"/>
		<path class="st0" d="M319.2,433.7c-10-2.8-20.1-5.5-29.5-9.9s-18.1-10.5-24.3-18.9s-9.3-19.2-7.2-29.4"/>
		<path class="st0" d="M106.7,390.2l4.6-54.8"/>
		<path class="st0" d="M76.6,357.4l54.8,6.9"/>
		<path class="st0" d="M124.6,376l-29.1-31.9"/>
		<path class="st0" d="M83.8,375.9c12.5-9.1,25.7-17.2,39.4-24.4"/>
		<path class="st0" d="M518.3,94.4l4.6-54.8"/>
		<path class="st0" d="M488.1,61.6l54.8,6.9"/>
		<path class="st0" d="M536.2,80.2l-29.1-31.9"/>
		<path class="st0" d="M495.3,80.1c12.5-9.1,25.7-17.2,39.4-24.4"/>
		<path class="st0" d="M373.6,333.4c0-21.4,6.1-42.4,17.7-60.4"/>
	</g>
</g>
</svg>
