<svg xmlns="http://www.w3.org/2000/svg" viewBox="0 0 684.09 270.97"><g id="Layer_2" data-name="Layer 2"><g id="Layer_1-2" data-name="Layer 1"><path d="M33.84,210.81a10.91,10.91,0,0,1,5.43-1.63,4.69,4.69,0,0,1,2.15.48,21.22,21.22,0,0,1,2,1.15A11.49,11.49,0,0,0,45.73,212a9.78,9.78,0,0,0,3.35.48,9.2,9.2,0,0,0,3.19-.48,6.68,6.68,0,0,0,2-1.06,9,9,0,0,0,1.21-1.72,2.31,2.31,0,0,1-2.07-.77,3,3,0,0,1-.52-1.72,11.91,11.91,0,0,1,.35-2.49q2.4-8.05,6.37-18.68T68,163c.34-.51.89-1.24,1.63-2.2s1.61-2,2.59-3.07a25.54,25.54,0,0,1,3.18-3,17.31,17.31,0,0,1,3.45-2.11l.34-1.15A6.07,6.07,0,0,1,77.67,150c-.46-.64-.94-1.34-1.46-2.11a7.87,7.87,0,0,1-1.12-3.06q4.65-11.69,9-22.61T92,102.83q4-9.76,7.57-18.39a175.56,175.56,0,0,1,8.88-19.93,54.15,54.15,0,0,1,6.11-9.39q2.75-3.25,4.65-3.07a4.82,4.82,0,0,0-1-2q-.95-1.44-5.25-1.44A6.8,6.8,0,0,0,109.19,50a51.75,51.75,0,0,0-4.48,3.55q-1.38,1.14-2.49,2.1a11.64,11.64,0,0,1-2.85,1.73A19,19,0,0,1,95,58.66a54.31,54.31,0,0,1-7.15.67,59.32,59.32,0,0,1-7.49-.09q-4.05-.29-7.83-.77c-2.53-.32-4.89-.6-7.07-.86a46.58,46.58,0,0,0-5.33-.38,59.86,59.86,0,0,0-23,4.5,61.58,61.58,0,0,0-19.2,12.36A58.42,58.42,0,0,0,4.82,92.68,56.4,56.4,0,0,0,0,116.05q0,10.92,2.5,18a31.42,31.42,0,0,0,6.37,11.21A21.59,21.59,0,0,0,17.31,151a26,26,0,0,0,8.7,1.62,21.57,21.57,0,0,0,8.18-1.43A17.66,17.66,0,0,0,40,147.58a14.38,14.38,0,0,0,3.35-5.08,15.67,15.67,0,0,0,1.12-5.75,15.23,15.23,0,0,0-.6-4.69,15,15,0,0,0-1.29-3,9.55,9.55,0,0,0-1.9-1.91,8.26,8.26,0,0,1-2.23,2.3,11.67,11.67,0,0,1-2.85,1.63,10.3,10.3,0,0,1-3.87.67,13.5,13.5,0,0,1-4.65-1,12.75,12.75,0,0,1-4.82-3.35A19.51,19.51,0,0,1,18.43,121a28.42,28.42,0,0,1-1.55-10.16A46.43,46.43,0,0,1,20,94a43.24,43.24,0,0,1,8.7-14.09,41.38,41.38,0,0,1,13.43-9.58,42,42,0,0,1,17.48-3.54,16.34,16.34,0,0,1,4,.67,13,13,0,0,1,4.82,2.58,16,16,0,0,1,4.05,5.47,21.49,21.49,0,0,1,1.72,9.29q-5.34,16.1-10.51,30.37t-10,26.73a19,19,0,0,1-1.63,2c-.75.84-1.58,1.73-2.5,2.69a35.13,35.13,0,0,1-3,2.78,15.06,15.06,0,0,1-3.36,2.1l-.35,1a12.25,12.25,0,0,1,1.38,1.92c.35.64.75,1.44,1.21,2.39a13.86,13.86,0,0,1,1,3.17q-7.23,18-11.88,28.36t-5,10.92a.59.59,0,0,0-.17.38c-.12.13-.17.22-.17.29a.6.6,0,0,1-.17.29,23.46,23.46,0,0,1-3.36,5.46,12.4,12.4,0,0,1-3,2.58,5.6,5.6,0,0,1-2.92,1A5,5,0,0,0,20.93,211c.74,1,2.61,1.44,5.59,1.44A14.64,14.64,0,0,0,33.84,210.81Z" style="fill:#fcf6e4"/><path d="M232,188.37a78.25,78.25,0,0,0,10.15-13.58q5.43-8.78,12.46-23.16h-6.07q-4.63,8.31-8.95,14.7c-1.28,1.81-2.55,3.59-3.83,5.35s-2.53,3.33-3.76,4.71a21.59,21.59,0,0,1-3.51,3.28,5.28,5.28,0,0,1-2.8,1.19c-1.92,0-2.93-.72-3-2.15a14.51,14.51,0,0,1,1-5.6c.79-2.28,1.83-4.87,3.11-7.74a88.28,88.28,0,0,0,3.36-8.79,6.64,6.64,0,0,1,2.39-2.72,19.54,19.54,0,0,1,3.68-2.23l.32-.8a12.81,12.81,0,0,1-2.4-1.92,18.94,18.94,0,0,1-1.84-2.16,7,7,0,0,1-1.19-2.63,11.35,11.35,0,0,0-5.44-6.23q-4.16-2.4-13.1-2.4a15.56,15.56,0,0,0-5.59,1,25,25,0,0,0-5.27,2.79,94.68,94.68,0,0,1,8.07-9.82,57.84,57.84,0,0,1,7-6.31,25.72,25.72,0,0,1,5.83-3.44,22.73,22.73,0,0,1,4.71-1.36,9.25,9.25,0,0,1,8.15,2.56,6.05,6.05,0,0,0,4.79,2.24,6.16,6.16,0,0,0,4.8-2.16,7.79,7.79,0,0,0,1.91-5.35,10.06,10.06,0,0,0-2.31-6.31q-2.33-3-8.23-3a24,24,0,0,0-11.51,3.12,55.42,55.42,0,0,0-10.86,7.75,93.47,93.47,0,0,0-9.51,10q-4.39,5.36-7.59,10,3.68-9.58,7.67-19.74T212.05,99q3.44-8.39,5.67-13.82t2.4-5.59a15.08,15.08,0,0,1,2.64-4.47,17.45,17.45,0,0,1,2.47-2.24,8.15,8.15,0,0,1,2.4-.8,4,4,0,0,0-.88-1.44c-.59-.74-2.1-1.12-4.55-1.12a13.67,13.67,0,0,0-6.63,1.44,37.74,37.74,0,0,0-5,3.28,43.28,43.28,0,0,1-5,3.27,12.17,12.17,0,0,1-6.07,1.44,7.47,7.47,0,0,0-2.72.4,7.32,7.32,0,0,0-1.59.88,4.86,4.86,0,0,0-1,1.28c.85,0,1.38.21,1.6.64a5.86,5.86,0,0,1,.48,1.43,14.3,14.3,0,0,1-.17,2.08q-5.27,16.45-10.46,30.92T175.86,143a15,15,0,0,1-3.27,4.15,19.26,19.26,0,0,1-5.19,3.68l-.32.8c.35.4.66.78.94,1.16q-4.29,7.59-8.29,13.54-1.92,2.71-3.84,5.35c-1.27,1.75-2.53,3.33-3.75,4.71a22,22,0,0,1-3.52,3.28,5.35,5.35,0,0,1-3,1.19,2.33,2.33,0,0,1-2.56-1.59,9.25,9.25,0,0,1,.16-4.48,52.76,52.76,0,0,1,2-6.63c.9-2.5,1.89-5.19,2.95-8.07a18.33,18.33,0,0,1,3.28-4.39,16.85,16.85,0,0,1,6-4.07l.32-.8a8.57,8.57,0,0,1-2.24-2.56,9.94,9.94,0,0,1-1.27-2.47,4.45,4.45,0,0,1-.16-2.64,74.73,74.73,0,0,0,2.07-10.71,27.68,27.68,0,0,0-.4-9.74,12.9,12.9,0,0,0-4.39-7.11q-3.36-2.79-10.07-2.8a16.23,16.23,0,0,0-8.86,2.48,32.92,32.92,0,0,0-7.27,6.31A66.14,66.14,0,0,0,119,130q-2.88,4.54-5.6,8.54,1.27-2.86,2.48-6c.8-2.07,1.62-4,2.48-5.83q1.28-3,2.71-6.07l.32-.32a15.08,15.08,0,0,1,2.64-4.47,17.53,17.53,0,0,1,2.48-2.24,8.19,8.19,0,0,1,2.39-.8,4.27,4.27,0,0,0-.88-1.52c-.58-.79-2.1-1.19-4.55-1.19a9.92,9.92,0,0,0-4.07.88c-1.34.58-2.8,1.19-4.4,1.83a57.08,57.08,0,0,1-5.43,1.84,25.25,25.25,0,0,1-7,.88,6.22,6.22,0,0,0-2.72.48,10.08,10.08,0,0,0-1.59,1,4.83,4.83,0,0,0-1,1.27c.85,0,1.38.22,1.59.64a5.3,5.3,0,0,1,.48,1.44,14.32,14.32,0,0,1-.16,2.08q-1.9,5.91-3.67,11t-3.2,9.75A12.37,12.37,0,0,1,89,147.31a21.26,21.26,0,0,1-5.19,3.52l-.48,1c.11,0,.37.24.8.72a18.67,18.67,0,0,1,1.35,1.75,11.47,11.47,0,0,1,1.2,2.24,2.92,2.92,0,0,1,0,2.32q-2.4,6.56-4.23,11t-3.2,7.43c-.9,2-1.65,3.51-2.23,4.63s-1,1.95-1.36,2.48a3.61,3.61,0,0,0-.64,1c-.1.1-.16.18-.16.24s0,.13-.16.24,0,.16-.08.16-.08.05-.08.15a19.22,19.22,0,0,1-2.8,4.56,10.75,10.75,0,0,1-2.47,2.16,4.57,4.57,0,0,1-2.4.79,4.15,4.15,0,0,0,1,1.52c.64.8,2.18,1.2,4.63,1.2A11.22,11.22,0,0,0,78.4,195a8.66,8.66,0,0,1,4.48-1.36,3.79,3.79,0,0,1,1.83.4c.48.27,1,.59,1.6,1a10.13,10.13,0,0,0,1.92,1,8.11,8.11,0,0,0,2.8.4,7.54,7.54,0,0,0,2.63-.4,6.89,6.89,0,0,0,1.68-.88,4.33,4.33,0,0,0,1-1.44c-1.49,0-2.24-.69-2.24-2.07a9.18,9.18,0,0,1,.32-2.08q2.24-7.19,4.79-14.46t5.28-14.3a11.57,11.57,0,0,1,1.19-2.07,18.24,18.24,0,0,1,2.16-2.56,31.08,31.08,0,0,1,2.8-2.48,17.9,17.9,0,0,1,3.11-2l.32-.8a4.31,4.31,0,0,1-1-.48c-.64-.43-.79-.8-.47-1.12q2.55-3.36,5.43-6.95t5.67-6.55a42.48,42.48,0,0,1,5.35-4.87,7.88,7.88,0,0,1,4.48-1.92,3.42,3.42,0,0,1,2.95,1.2,5.31,5.31,0,0,1,.88,3.19,19.73,19.73,0,0,1-.72,4.8q-.72,2.79-1.84,6a10.4,10.4,0,0,1-3.11,3.83,18.89,18.89,0,0,1-4.56,2.88l-.31.8a9.49,9.49,0,0,1,1.75,1.91,6,6,0,0,1,1,1.68,1.9,1.9,0,0,1,0,1.52c-1.17,2.56-2.32,5.11-3.43,7.67s-2.11,5-3,7.27-1.57,4.39-2.16,6.31a17.25,17.25,0,0,0-.88,4.79,16.67,16.67,0,0,0,1.12,6.47,10.78,10.78,0,0,0,7.35,6.47,19.62,19.62,0,0,0,5.12.64,26.55,26.55,0,0,0,9.18-1.6,25.39,25.39,0,0,0,9.11-6.39,78.26,78.26,0,0,0,10.14-13.58c1.17-1.88,2.39-4,3.66-6.24-.13.32-.26.66-.38,1q-2,5.11-3.6,8.63c-1.17,2.77-2.23,5.16-3.19,7.19-.11.1-.16.18-.16.24s0,.13-.16.24,0,.31-.16.31a19.22,19.22,0,0,1-2.8,4.56,10.75,10.75,0,0,1-2.47,2.16,4.57,4.57,0,0,1-2.4.79,3.29,3.29,0,0,0,1,1.6c.64.75,2.18,1.12,4.63,1.12A11.24,11.24,0,0,0,162,195a8.66,8.66,0,0,1,4.48-1.36,3.79,3.79,0,0,1,1.83.4c.48.27,1,.59,1.6,1a10.13,10.13,0,0,0,1.92,1,8.11,8.11,0,0,0,2.8.4,7.54,7.54,0,0,0,2.63-.4,6.89,6.89,0,0,0,1.68-.88,4.33,4.33,0,0,0,1-1.44c-1.49,0-2.24-.69-2.24-2.07a9.18,9.18,0,0,1,.32-2.08q1.76-5.27,4.15-12.22t5.28-14.78a89.25,89.25,0,0,1,7-7.19,49.54,49.54,0,0,1,6.55-5,12.58,12.58,0,0,1,6.71-2.24c2.23,0,3.62.59,4.15,1.76a6.36,6.36,0,0,1-.08,4.55,40.74,40.74,0,0,1-2.79,6.47L205,168.4q-2,3.84-3.51,7.59a18.23,18.23,0,0,0-1.52,6.79,16.49,16.49,0,0,0,1.12,6.47,10.91,10.91,0,0,0,3,4.24,11.06,11.06,0,0,0,4.4,2.23,20.5,20.5,0,0,0,5.19.64,26.56,26.56,0,0,0,9.19-1.6A25.36,25.36,0,0,0,232,188.37Z" style="fill:#fcf6e4"/><path d="M405.06,190.58a60,60,0,0,0,7.75-10.38,191,191,0,0,0,9.4-17.69h-4.52q-3.54,6.35-6.83,11.23-1.47,2.07-2.93,4.08t-2.87,3.6a16.85,16.85,0,0,1-2.69,2.51,4,4,0,0,1-2.13.91,1.77,1.77,0,0,1-1.95-1.21,6.46,6.46,0,0,1,.12-3.29,41,41,0,0,1,1.52-4.87c.69-1.87,1.45-3.9,2.26-6.09a11.1,11.1,0,0,1,2.63-3.78,13.11,13.11,0,0,1,4.33-3l.24-.61a9.81,9.81,0,0,1-1.58-1.7,6,6,0,0,1-1-1.65,2.32,2.32,0,0,1-.12-1.64,76.31,76.31,0,0,0,2-8.34,21.76,21.76,0,0,0,.12-7.61,9.16,9.16,0,0,0-3.11-5.54q-2.51-2.13-7.75-2.13a15.44,15.44,0,0,0-7.26,1.52,17.57,17.57,0,0,0-4.94,3.85,27.64,27.64,0,0,0-3.67,5.19c-1.06,1.91-2.19,3.76-3.41,5.55a35.92,35.92,0,0,0,.48-5.8,12.86,12.86,0,0,0-1-5.13,8.37,8.37,0,0,0-3.24-3.72,11.53,11.53,0,0,0-6.28-1.46,12.57,12.57,0,0,0-6.17,1.52,21.69,21.69,0,0,0-5,3.85,39.46,39.46,0,0,0-4.21,5.12q-2,2.82-3.78,5.5c.4-.9.89-2,1.46-3.3s1.1-2.52,1.59-3.66c.57-1.38,1.17-2.77,1.83-4.15q0-.12.06-.12s.06,0,.06-.13a13.19,13.19,0,0,1,2.14-3.41,17,17,0,0,1,1.89-1.76,5.44,5.44,0,0,1,1.83-.68,3.25,3.25,0,0,0-.73-1.16c-.49-.61-1.67-.92-3.54-.92a7.92,7.92,0,0,0-3.48.8c-1.1.53-2.24,1.09-3.42,1.7a26.77,26.77,0,0,1-4,1.65,17.16,17.16,0,0,1-5.31.73,5.22,5.22,0,0,0-2.13.37,6.92,6.92,0,0,0-1.28.73,4,4,0,0,0-.74,1,1.6,1.6,0,0,1,1.35.49,1.79,1.79,0,0,1,.36,1.1,5.9,5.9,0,0,1-.24,1.58c-1,3-1.89,5.82-2.75,8.42s-1.69,5.09-2.5,7.45a8.62,8.62,0,0,1-2.5,3.23,17,17,0,0,1-4,2.63l-.24.61c.24.3.45.6.66.89a64,64,0,0,1-7,9.85,47.88,47.88,0,0,1-4,4,34.38,34.38,0,0,1-4.76,3.54,24.43,24.43,0,0,1-5.37,2.49,18.48,18.48,0,0,1-5.86.92,15.72,15.72,0,0,1-6.89-1.34,10.83,10.83,0,0,1-4.27-3.54,11.84,11.84,0,0,1-2-5.13,21.34,21.34,0,0,1,.07-6.22,11.12,11.12,0,0,0,4,5.67q3.06,2.39,8.79,2.38a13.13,13.13,0,0,0,6.47-1.76,25.71,25.71,0,0,0,6-4.7c.65-.74,1.3-1.51,2-2.32a29.76,29.76,0,0,0,1.83-2.57,3.47,3.47,0,0,1,1.71-1.4l2.69-1,.24-.73a5.13,5.13,0,0,1-.85-1.1,4.58,4.58,0,0,1-.31-1.46,4.16,4.16,0,0,1,.55-2.08c.16-.49.31-1,.43-1.46a9.31,9.31,0,0,1,.43-1.35,32.85,32.85,0,0,0,1.09-7.44,18.88,18.88,0,0,0-1-6.9,10.59,10.59,0,0,0-3.72-5.06,11.78,11.78,0,0,0-7.15-2,26.68,26.68,0,0,0-10.25,2,38.45,38.45,0,0,0-9,5.25,45.21,45.21,0,0,0-7.44,7.32,52.06,52.06,0,0,0-5.5,8.24,11.92,11.92,0,0,1-2.5,3.23,13.36,13.36,0,0,1-4.09,2.87l-.24.61a15.58,15.58,0,0,1,1.46,2.57,11.71,11.71,0,0,1,1,2.25,5,5,0,0,1,.24,2.14,30.67,30.67,0,0,0,.49,10.19,21.75,21.75,0,0,0,4,8.73,20.66,20.66,0,0,0,7.81,6A28.78,28.78,0,0,0,297,196.44a17.05,17.05,0,0,0,6.9-1.47,31.23,31.23,0,0,0,6.47-3.84,39.89,39.89,0,0,0,5.8-5.49c1.78-2.08,3.45-4.17,5-6.29q2.84-4,5.42-8.52c-.8,2.12-1.53,4-2.19,5.59Q323,179.84,322,182.1c-.65,1.5-1.22,2.68-1.7,3.54l-1.1,1.89a2.87,2.87,0,0,1-.49.73.24.24,0,0,1-.06.18.26.26,0,0,0-.06.18.39.39,0,0,0-.12.25,15,15,0,0,1-2.14,3.48,8.25,8.25,0,0,1-1.89,1.65,3.53,3.53,0,0,1-1.83.6,3.08,3.08,0,0,0,.67,1.16c.45.61,1.61.92,3.48.92a8.94,8.94,0,0,0,4.57-1,6.88,6.88,0,0,1,3.48-1,3,3,0,0,1,1.34.31,9.14,9.14,0,0,1,1.22.73,6.24,6.24,0,0,0,1.41.73,5.92,5.92,0,0,0,2.13.31,5.45,5.45,0,0,0,2.08-.31,5.35,5.35,0,0,0,1.22-.67,3.21,3.21,0,0,0,.73-1.1,1.4,1.4,0,0,1-1.59-1.58,7.15,7.15,0,0,1,.25-1.59q1.71-5.49,3.66-11c1.3-3.71,2.64-7.34,4-10.93a7.77,7.77,0,0,1,.73-1.34,13.39,13.39,0,0,1,1.59-2,22.68,22.68,0,0,1,2.19-2,12,12,0,0,1,2.57-1.58l.24-.61a2.82,2.82,0,0,1-1-.49c-.57-.41-.77-.81-.6-1.22q1.7-2.56,3.72-5.25t3.9-4.82a27.48,27.48,0,0,1,3.73-3.54,5.57,5.57,0,0,1,3.17-1.4,2.55,2.55,0,0,1,2.26,1,4.21,4.21,0,0,1,.55,2.69,18.24,18.24,0,0,1-.86,4q-.74,2.32-1.83,5a5.84,5.84,0,0,1-2.14,2.38,19.88,19.88,0,0,1-2.86,1.65l-.25.61,1.1,1.09c.25.33.47.66.67,1a.74.74,0,0,1,.06.86c-1,2-2,4.09-3,6.16s-1.91,4-2.68,5.86-1.41,3.52-1.89,5.06a13.23,13.23,0,0,0-.74,3.79,12.64,12.64,0,0,0,.86,4.94,8.28,8.28,0,0,0,5.61,4.94,14.91,14.91,0,0,0,3.91.49,10.7,10.7,0,0,0,6.28-1.83,12.66,12.66,0,0,0,3.91-4.09,7,7,0,0,0,1.1-4.09,1.88,1.88,0,0,0-2.14-1.83,1.6,1.6,0,0,1-1.77-1.22,7.26,7.26,0,0,1,.19-3.29,34.15,34.15,0,0,1,1.64-5q1.17-2.87,2.5-6a13,13,0,0,1,2.51-3.6,12.18,12.18,0,0,1,4.33-3.23l.24-.61a3.2,3.2,0,0,1-1.22-.74,2.36,2.36,0,0,1-.73-.85,1.32,1.32,0,0,1,0-1.1c1.06-1.71,2.22-3.39,3.48-5.06s2.5-3.18,3.72-4.52a22.64,22.64,0,0,1,3.54-3.23,5.43,5.43,0,0,1,3-1.22,2.62,2.62,0,0,1,2.26.91,4,4,0,0,1,.67,2.44,14.83,14.83,0,0,1-.55,3.66c-.36,1.43-.83,2.95-1.4,4.58a7.77,7.77,0,0,1-2.44,3,15.29,15.29,0,0,1-3.42,2.08l-.24.61a10.52,10.52,0,0,1,1.34,1.34,4.59,4.59,0,0,1,.73,1.28,1.77,1.77,0,0,1,0,1.28c-.89,2-1.77,3.91-2.62,5.86s-1.63,3.8-2.32,5.55-1.26,3.36-1.71,4.82a13,13,0,0,0-.67,3.67,12.65,12.65,0,0,0,.85,4.94,8.2,8.2,0,0,0,5.68,4.94,15.57,15.57,0,0,0,4,.49,20.21,20.21,0,0,0,7-1.22A19.45,19.45,0,0,0,405.06,190.58ZM298.57,147.07a16.25,16.25,0,0,1,9.64-3.24q2.81,0,3.85,3.18a12.75,12.75,0,0,1,.12,7,15.8,15.8,0,0,1-3.78,7,10.09,10.09,0,0,1-7.88,3.18,4.79,4.79,0,0,1-3.54-1.35,7,7,0,0,1-1.89-6.65,4.45,4.45,0,0,1,1.89-2.74,12.27,12.27,0,0,0-6.1,1.58A30.65,30.65,0,0,1,298.57,147.07Z" style="fill:#fcf6e4"/><path d="M532.76,211.77a11.09,11.09,0,0,0,2.07-1.06A8.94,8.94,0,0,0,536,209a2.49,2.49,0,0,1-2.06-.67,3.59,3.59,0,0,1-.69-1.63,5.2,5.2,0,0,1,.34-2.49q2.42-7.47,6.55-18.4t9.3-23.37a45.64,45.64,0,0,1,4.13-5.27,18.39,18.39,0,0,1,6.37-4.89l.34-1-1.37-1.53a12.25,12.25,0,0,1-1.38-1.92,8.86,8.86,0,0,1-1-2.68q5.85-14.37,11.79-28.26T579.09,92.1q4.81-10.92,7.75-17.63t2.92-6.9a24.35,24.35,0,0,1,3.36-5.27,12.4,12.4,0,0,1,3-2.58,9.67,9.67,0,0,1,2.92-1A4.06,4.06,0,0,0,598,56.84q-1.12-1.34-5.6-1.34a14.3,14.3,0,0,0-7.15,1.63,10.88,10.88,0,0,1-5.42,1.63,4.57,4.57,0,0,1-2.24-.48c-.58-.32-1.21-.7-1.9-1.15A11.41,11.41,0,0,0,573.32,56,9.81,9.81,0,0,0,570,55.5a31.8,31.8,0,0,1-6.46-1.34c-2.58-.77-5.57-1.56-9-2.39s-7.07-1.57-11-2.21a78.18,78.18,0,0,0-12.48-1,57.15,57.15,0,0,0-18.69,3.17,55.79,55.79,0,0,0-16.53,8.9,44.85,44.85,0,0,0-11.8,14,37.5,37.5,0,0,0-4.48,18.21,27,27,0,0,0,2.24,11.49,22.72,22.72,0,0,0,5.69,7.77,21,21,0,0,0,7.31,4.21,18.83,18.83,0,0,0,7.32,1,9.43,9.43,0,0,0,5.69-2.3,6.76,6.76,0,0,0,2.24-5.27,15.93,15.93,0,0,1-5.51-3.45,19.84,19.84,0,0,1-3.71-5.65,23,23,0,0,1-1.63-9.49,40,40,0,0,1,6.8-20.6,33.54,33.54,0,0,1,10.07-9.48q6.38-4,16.19-4a69.41,69.41,0,0,1,12.32,1,54,54,0,0,1,8.87,2.3,29.41,29.41,0,0,1,5.94,2.88,26,26,0,0,1,3.53,2.68q-3.61,4.41-9.73,11.78T539.22,94.31q-7.85,9.28-17.14,19.83T502.79,135.6A49.27,49.27,0,0,0,480.06,130a51.38,51.38,0,0,0-15.76,2.4,45,45,0,0,0-13.17,6.61,32.63,32.63,0,0,0-9,10.06,25.12,25.12,0,0,0-3.36,12.74q0,6.9,1.72,10.54a12.53,12.53,0,0,0,4,5.17,9.56,9.56,0,0,0,5.86,1.92q-1.9-3.25-1-9.68A32.87,32.87,0,0,1,454,157.06,37,37,0,0,1,464.82,146q7-4.78,17.31-4.79a37.94,37.94,0,0,1,13.26,2.29q-12.75,13.62-25.66,26.26t-24.29,21.94A131.15,131.15,0,0,1,425,205.83q-9.12,4.88-14.47,3.16a9.59,9.59,0,0,0,2.93,1.72,26.19,26.19,0,0,0,3.88,1.06,29.1,29.1,0,0,0,5.76.48,34.87,34.87,0,0,0,6.12-.48,46.89,46.89,0,0,0,4.91-1.15c1.49-.45,2.86-.83,4.13-1.15A15.32,15.32,0,0,1,442,209a33.21,33.21,0,0,1,5.08.48c2,.32,4.1.7,6.29,1.15s4.3.83,6.37,1.15a36.35,36.35,0,0,0,5.51.48,7.16,7.16,0,0,0,2.93-.48,7.56,7.56,0,0,0,1.72-1.06,5.12,5.12,0,0,0,1-1.72,3.94,3.94,0,0,1-2.41-.77,7.5,7.5,0,0,1-1.63-2.39,11.82,11.82,0,0,1-.78-4.89q0-1.33,3-5.84t8.27-11.21q5.25-6.7,12.49-15.33t15.67-18.4q7.92,4.8,11.37,10.64a43.46,43.46,0,0,1,5,13.31q-5,11.13-8.18,17.73c-2.13,4.41-3.3,6.8-3.53,7.19a.48.48,0,0,0-.17.28c0,.07-.06.16-.18.29l-.17.38a30,30,0,0,1-3.44,5.46,11.22,11.22,0,0,1-2.93,2.59,5.6,5.6,0,0,1-2.93,1,4,4,0,0,0,1.12,1.91c.75.9,2.61,1.35,5.6,1.35a14.3,14.3,0,0,0,7.15-1.63,10.88,10.88,0,0,1,5.42-1.63,4.69,4.69,0,0,1,2.15.48,20,20,0,0,1,2,1.15,12.33,12.33,0,0,0,2.33,1.15,9.81,9.81,0,0,0,3.36.48A9.07,9.07,0,0,0,532.76,211.77Zm-4.91-50.88c-.29.65-.55,1.28-.77,1.92a62.29,62.29,0,0,0-2.5-6.42,35.91,35.91,0,0,0-2.93-5.17,25.57,25.57,0,0,0-4-4.51,58.74,58.74,0,0,0-5.6-4.4q14.82-17.25,25.84-31.24t19.46-23.38q-2.94,8.06-5.43,14.85t-5,13.13q-2.51,6.33-5.08,12.46t-5.34,13a53.21,53.21,0,0,1-3.45,4.21,32.55,32.55,0,0,1-3.53,3.36,18.92,18.92,0,0,1-4,2.58l-.35,1a20.13,20.13,0,0,1,1.38,1.73c.34.63.72,1.37,1.12,2.2a13,13,0,0,1,1,2.78C528.4,159.62,528.14,160.25,527.85,160.89Z" style="fill:#fcf6e4"/><path d="M658.68,166.16c-1.17,1.82-2.42,3.6-3.75,5.36s-2.61,3.33-3.84,4.71a21.59,21.59,0,0,1-3.51,3.28,5.35,5.35,0,0,1-3,1.2,2.51,2.51,0,0,1-2.47-1.68,10.76,10.76,0,0,1-.56-4.71,43.17,43.17,0,0,1,1.12-7.25q.94-4.23,2.39-9.18a10.14,10.14,0,0,1,3-3.75,16,16,0,0,1,4.31-2.63l.32-1a12.11,12.11,0,0,1-2.08-1.59,5.39,5.39,0,0,1-1.19-1.75,2.61,2.61,0,0,1-.08-1.92q2.39-6.39,5.19-14.2t5.83-15.63q3-7.81,6.15-15.16t6.15-13.08a53.36,53.36,0,0,1,5.91-9.17q2.88-3.43,5.44-3.43a3.49,3.49,0,0,0-.88-1.6c-.59-.75-2.11-1.12-4.56-1.12a13.91,13.91,0,0,0-5.27,1q-2.55,1-5.19,2.4a54,54,0,0,1-5.35,2.39,15.86,15.86,0,0,1-5.76,1,6.17,6.17,0,0,0-2.71.48,10.22,10.22,0,0,0-1.6,1,5.09,5.09,0,0,0-1,1.28,2.07,2.07,0,0,1,1.76.64,2.3,2.3,0,0,1,.48,1.43,7.69,7.69,0,0,1-.32,2.08q-1.61,3.67-4.31,10.07t-6,14.14q-3.28,7.74-6.71,16.37T630.24,143a15.71,15.71,0,0,1-3.43,4.39,19.47,19.47,0,0,1-5,3.44l-.26.64h-4.86q-4.63,8.31-8.78,14.69c-1.18,1.82-2.43,3.6-3.76,5.36s-2.61,3.33-3.83,4.71a22,22,0,0,1-3.52,3.28,5.32,5.32,0,0,1-2.95,1.2,2.51,2.51,0,0,1-2.48-1.68,10.76,10.76,0,0,1-.56-4.71,43.17,43.17,0,0,1,1.12-7.25q1-4.23,2.4-9.18a10.11,10.11,0,0,1,3-3.75,16,16,0,0,1,4.31-2.63l.32-1a11.63,11.63,0,0,1-2.07-1.59,5.27,5.27,0,0,1-1.2-1.75,2.61,2.61,0,0,1-.08-1.92q2.4-6.39,5.19-14.2t5.83-15.63q3-7.81,6.15-15.16t6.16-13.08a52.19,52.19,0,0,1,5.91-9.17q2.86-3.43,5.43-3.43a3.49,3.49,0,0,0-.88-1.6c-.59-.75-2.1-1.12-4.55-1.12a14,14,0,0,0-5.28,1q-2.55,1-5.19,2.4A53,53,0,0,1,612,77.73a15.81,15.81,0,0,1-5.75,1,6.19,6.19,0,0,0-2.72.48,10.71,10.71,0,0,0-1.6,1,5,5,0,0,0-1,1.28,2.05,2.05,0,0,1,1.75.64,2.3,2.3,0,0,1,.48,1.43,7.32,7.32,0,0,1-.32,2.08q-1.59,3.67-4.31,10.07t-6,14.14q-3.29,7.74-6.71,16.37T579.44,143a15.76,15.76,0,0,1-3.44,4.39,19.47,19.47,0,0,1-5,3.44l-.32.8c.75,1,1.38,1.86,1.92,2.71a8.41,8.41,0,0,1,1.19,2.4,3.07,3.07,0,0,1,.08,2.08q-1.76,5.6-2.87,9.82a27.41,27.41,0,0,0-1.12,6.47q0,11,4.24,16.06a14,14,0,0,0,11.26,5,20.17,20.17,0,0,0,5.91-1q3.36-1,7.75-5.57a90.77,90.77,0,0,0,10.22-13.49,234.94,234.94,0,0,0,12.95-23.5c.44.61.85,1.19,1.19,1.75a8.19,8.19,0,0,1,1.2,2.4,3.07,3.07,0,0,1,.08,2.08q-1.75,5.6-2.87,9.82a27.41,27.41,0,0,0-1.12,6.47q0,11,4.23,16.06a14,14,0,0,0,11.26,5,20.18,20.18,0,0,0,5.92-1q3.34-1,7.75-5.57A92.17,92.17,0,0,0,660,176.09a241.23,241.23,0,0,0,13.5-24.62h-6.07Q662.84,159.78,658.68,166.16Z" style="fill:#fcf6e4"/><rect x="3.19" y="253.07" width="6.43" height="5.48" style="fill:#fcf6e4"/><polygon points="52.66 239.84 24.1 239.84 24.1 248.01 29 248.01 29.27 244.58 35.15 244.58 35.15 266.2 31.71 266.83 31.71 270.52 45.01 270.52 45.01 266.83 41.57 266.2 41.57 244.58 47.47 244.58 47.73 248.01 52.66 248.01 52.66 239.84" style="fill:#fcf6e4"/><path d="M69.08,239.84H62.5l-9.75,26.68-2.29.32v3.68H61.38v-3.68l-2.22-.38,1.41-4.22H71l1.41,4.22-2.22.38v3.68H81.06v-3.68l-2.29-.32Zm-7,17.87,3.61-10.81h.14l3.6,10.81Z" style="fill:#fcf6e4"/><polygon points="79.52 248.01 84.42 248.01 84.69 244.58 90.56 244.58 90.56 266.2 87.13 266.83 87.13 270.52 100.42 270.52 100.42 266.83 96.99 266.2 96.99 244.58 102.89 244.58 103.15 248.01 108.08 248.01 108.08 239.84 79.52 239.84 79.52 248.01" style="fill:#fcf6e4"/><polygon points="110.17 248.01 115.08 248.01 115.34 244.58 121.22 244.58 121.22 266.2 117.79 266.83 117.79 270.52 131.08 270.52 131.08 266.83 127.65 266.2 127.65 244.58 133.55 244.58 133.81 248.01 138.74 248.01 138.74 239.84 110.17 239.84 110.17 248.01" style="fill:#fcf6e4"/><path d="M154.92,239.39a13.44,13.44,0,0,0-10.48,4.43,16,16,0,0,0-4,11.13v.46a16,16,0,0,0,4,11.15A13.48,13.48,0,0,0,154.94,271a13.61,13.61,0,0,0,10.54-4.41,15.91,15.91,0,0,0,4-11.15V255a15.89,15.89,0,0,0-4-11.13A13.62,13.62,0,0,0,154.92,239.39Zm8.18,16a13.51,13.51,0,0,1-2,7.81,7,7,0,0,1-6.12,3,6.82,6.82,0,0,1-6-3,13.59,13.59,0,0,1-2-7.81v-.5a13.69,13.69,0,0,1,2-7.76,6.8,6.8,0,0,1,6-3,7,7,0,0,1,6.11,3,13.26,13.26,0,0,1,2.07,7.74Z" style="fill:#fcf6e4"/><path d="M186.78,239.39a13.42,13.42,0,0,0-10.47,4.43,16,16,0,0,0-4,11.13v.46a16,16,0,0,0,4,11.15A13.48,13.48,0,0,0,186.81,271a13.61,13.61,0,0,0,10.54-4.41,15.91,15.91,0,0,0,4-11.15V255a15.89,15.89,0,0,0-4-11.13A13.64,13.64,0,0,0,186.78,239.39Zm8.19,16a13.44,13.44,0,0,1-2.05,7.81,6.94,6.94,0,0,1-6.11,3,6.85,6.85,0,0,1-6.05-3,13.67,13.67,0,0,1-2-7.81v-.5a13.62,13.62,0,0,1,2-7.76,6.79,6.79,0,0,1,6-3,7,7,0,0,1,6.12,3,13.26,13.26,0,0,1,2.07,7.74Z" style="fill:#fcf6e4"/><path d="M237.06,256.38a20.71,20.71,0,0,0-8-3.73,21.09,21.09,0,0,1-5.21-2.12,3,3,0,0,1-1.5-2.56,3.28,3.28,0,0,1,1.44-2.75,6.76,6.76,0,0,1,4.08-1.06,14.43,14.43,0,0,1,3.41.38,8.49,8.49,0,0,1,2.44.88l.84,4.22h4.82v-6.28a15.65,15.65,0,0,0-5.11-2.87,20,20,0,0,0-6.73-1.08,14.26,14.26,0,0,0-8.3,2.44,7.21,7.21,0,0,0-3.3,6.1,7,7,0,0,0,2.93,5.94,26.75,26.75,0,0,0,8.63,3.76,13.38,13.38,0,0,1,4.58,2,3.48,3.48,0,0,1,1.31,2.85,3.27,3.27,0,0,1-1.37,2.76,6.7,6.7,0,0,1-4,1,13,13,0,0,1-3.71-.5,8.16,8.16,0,0,1-2.63-1.25l-.68-4.36h-5v6.4a14.24,14.24,0,0,0,5.11,3.21A19.43,19.43,0,0,0,228,271a14.72,14.72,0,0,0,8.59-2.28,7.19,7.19,0,0,0,3.25-6.22A7.59,7.59,0,0,0,237.06,256.38Z" style="fill:#fcf6e4"/><polygon points="241.98 248.01 246.89 248.01 247.15 244.58 253.03 244.58 253.03 266.2 249.6 266.83 249.6 270.52 262.89 270.52 262.89 266.83 259.46 266.2 259.46 244.58 265.35 244.58 265.62 248.01 270.55 248.01 270.55 239.84 241.98 239.84 241.98 248.01" style="fill:#fcf6e4"/><path d="M291.52,243.55l3.41.63v16a5.74,5.74,0,0,1-1.71,4.55,7,7,0,0,1-4.74,1.5,6.81,6.81,0,0,1-4.67-1.51,5.75,5.75,0,0,1-1.71-4.54v-16l3.44-.63v-3.71H272.26v3.71l3.42.63v16a9.56,9.56,0,0,0,3.53,8,16.78,16.78,0,0,0,18.59,0,9.55,9.55,0,0,0,3.56-8v-16l3.43-.63v-3.71H291.52Z" style="fill:#fcf6e4"/><path d="M321.1,239.84H306.69v3.71l3.41.63v22l-3.41.64v3.68H321.1a13.57,13.57,0,0,0,9.68-3.57,12.06,12.06,0,0,0,3.81-9.22v-5.08a12.12,12.12,0,0,0-3.81-9.22A13.5,13.5,0,0,0,321.1,239.84Zm7,17.89a8.57,8.57,0,0,1-1.95,5.84,6.84,6.84,0,0,1-5.42,2.23h-4.25V244.58h4.25a6.84,6.84,0,0,1,5.42,2.23,8.5,8.5,0,0,1,1.95,5.8Z" style="fill:#fcf6e4"/><polygon points="337.72 243.54 341.15 244.18 341.15 266.2 337.72 266.83 337.72 270.52 350.99 270.52 350.99 266.83 347.56 266.2 347.56 244.18 350.99 243.54 350.99 239.84 337.72 239.84 337.72 243.54" style="fill:#fcf6e4"/><path d="M368.13,239.39a13.4,13.4,0,0,0-10.47,4.43,16,16,0,0,0-4,11.13v.46a15.94,15.94,0,0,0,4,11.15A13.48,13.48,0,0,0,368.16,271a13.61,13.61,0,0,0,10.54-4.41,15.91,15.91,0,0,0,4-11.15V255a15.89,15.89,0,0,0-4-11.13A13.64,13.64,0,0,0,368.13,239.39Zm8.19,16a13.44,13.44,0,0,1-2.05,7.81,6.94,6.94,0,0,1-6.11,3,6.85,6.85,0,0,1-6.05-3,13.67,13.67,0,0,1-2-7.81v-.5a13.62,13.62,0,0,1,2-7.76,6.79,6.79,0,0,1,6-3,7,7,0,0,1,6.12,3,13.26,13.26,0,0,1,2.07,7.74Z" style="fill:#fcf6e4"/><path d="M421.26,260.93a18.16,18.16,0,0,0,.75-5.35h-4.8a10.6,10.6,0,0,1-.44,3.12,10.93,10.93,0,0,1-1.23,2.74l-6.07-6.79,2-1.39a10.34,10.34,0,0,0,2.95-3,6.93,6.93,0,0,0,1.08-3.77,6.67,6.67,0,0,0-2.19-5,8,8,0,0,0-5.69-2.08,9,9,0,0,0-6.36,2.18,7.56,7.56,0,0,0-2.38,5.83,7.79,7.79,0,0,0,.74,3.27,19,19,0,0,0,2.23,3.54,19.19,19.19,0,0,0-4.35,3.76,6.65,6.65,0,0,0-1.43,4.29,7.84,7.84,0,0,0,2.84,6.29,11.37,11.37,0,0,0,7.63,2.42,15.32,15.32,0,0,0,4.25-.58,15.93,15.93,0,0,0,3.85-1.74l1.7,1.87h7.13l0-.1L419,265.28A12.77,12.77,0,0,0,421.26,260.93Zm-15.82-15.88a2.71,2.71,0,0,1,2.2-.91,2.81,2.81,0,0,1,2.1.82,2.58,2.58,0,0,1,.8,1.87,3.57,3.57,0,0,1-.43,1.75,4.35,4.35,0,0,1-1.66,1.56l-1.89,1.18a11.67,11.67,0,0,1-1.42-2.12,4.1,4.1,0,0,1-.47-1.86A3.41,3.41,0,0,1,405.44,245.05ZM409.25,266a9.86,9.86,0,0,1-2.34.29,4.3,4.3,0,0,1-3.17-1.22,4.18,4.18,0,0,1-1.21-3.08,4.92,4.92,0,0,1,.41-1.93,5.77,5.77,0,0,1,1.53-2l.42-.28,6.6,7.34A9.83,9.83,0,0,1,409.25,266Z" style="fill:#fcf6e4"/><path d="M453.81,239.84h-6.58l-9.75,26.68-2.29.32v3.68h10.92v-3.68l-2.22-.38,1.4-4.22h10.39l1.41,4.22-2.22.38v3.68h10.91v-3.68l-2.28-.32Zm-7,17.87,3.61-10.81h.14l3.6,10.81Z" style="fill:#fcf6e4"/><path d="M481.17,239.39a14,14,0,0,0-10.59,4.3,15.28,15.28,0,0,0-4.09,11v1a15.19,15.19,0,0,0,4.11,11A14,14,0,0,0,481.17,271a17,17,0,0,0,6.72-1.28,13.72,13.72,0,0,0,4.94-3.42V260.2h-4.77l-.66,4.09a5.93,5.93,0,0,1-2.44,1.43,10.83,10.83,0,0,1-3.46.53,7.53,7.53,0,0,1-6.34-2.93,12.16,12.16,0,0,1-2.24-7.61v-1.08a12.06,12.06,0,0,1,2.25-7.59,7.65,7.65,0,0,1,6.44-2.9,10,10,0,0,1,3.4.52,6.67,6.67,0,0,1,2.39,1.44l.66,4.08h4.77v-6.07a14.33,14.33,0,0,0-4.95-3.42A16.77,16.77,0,0,0,481.17,239.39Z" style="fill:#fcf6e4"/><path d="M514.07,239.84h-6.58l-9.75,26.68-2.29.32v3.68h10.92v-3.68l-2.22-.38,1.4-4.22h10.39l1.41,4.22-2.22.38v3.68H526v-3.68l-2.29-.32Zm-7,17.87,3.61-10.81h.13l3.61,10.81Z" style="fill:#fcf6e4"/><path d="M542.57,239.84H528.16v3.71l3.41.63v22l-3.41.64v3.68h14.41a13.61,13.61,0,0,0,9.69-3.57,12.09,12.09,0,0,0,3.8-9.22v-5.08a12.15,12.15,0,0,0-3.8-9.22A13.54,13.54,0,0,0,542.57,239.84Zm7,17.89a8.57,8.57,0,0,1-2,5.84,6.83,6.83,0,0,1-5.42,2.23H538V244.58h4.25a6.83,6.83,0,0,1,5.42,2.23,8.5,8.5,0,0,1,2,5.8Z" style="fill:#fcf6e4"/><polygon points="579.39 265.8 569.05 265.8 569.05 257.04 579.9 257.04 579.9 252.29 569.05 252.29 569.05 244.58 579.3 244.58 579.59 248.25 584.52 248.25 584.52 239.84 562.62 239.84 559.21 239.84 559.21 243.54 562.62 244.18 562.62 266.2 559.21 266.83 559.21 270.52 584.56 270.52 584.56 262.13 579.68 262.13 579.39 265.8" style="fill:#fcf6e4"/><polygon points="608.09 262.45 607.96 262.45 599.79 239.84 591.41 239.84 588 239.84 588 243.54 591.41 244.18 591.41 266.2 588 266.83 588 270.52 601.27 270.52 601.27 266.83 597.84 266.2 597.84 261.38 597.22 247.91 597.35 247.89 605.89 270.52 610.21 270.52 618.79 247.8 618.92 247.82 618.3 261.38 618.3 266.2 614.89 266.83 614.89 270.52 628.16 270.52 628.16 266.83 624.73 266.2 624.73 244.18 628.16 243.54 628.16 239.84 616.32 239.84 608.09 262.45" style="fill:#fcf6e4"/><polygon points="647 243.54 649.6 243.9 644.63 253.98 644.49 253.98 639.52 243.9 642.14 243.54 642.14 239.84 630.01 239.84 630.01 243.54 632.72 243.97 641.28 259.42 641.28 266.2 637.85 266.83 637.85 270.52 651.12 270.52 651.12 266.83 647.68 266.2 647.68 259.73 656.4 243.97 659.13 243.54 659.13 239.84 647 239.84 647 243.54" style="fill:#fcf6e4"/><rect x="674.23" y="253.07" width="6.43" height="5.48" style="fill:#fcf6e4"/><path d="M385.19,67.62l1-.56,1.3-2.07q1.79-4-1.41-6l-2-1.27a1,1,0,0,0-1.36.31Q381,65,385.19,67.62Z" style="fill:#fcf6e4"/><path d="M270.53,129.73l5.72-9.07a15.33,15.33,0,0,0,7-5.48l3.2-5.08c5.59.08,8.77-.5,9.56-1.75a27.49,27.49,0,0,1,3.1-3.71l.06-1.32a4.58,4.58,0,0,0,1.85-1.71c.2-.32.12-.6-.24-.83l1.19-.68a4.28,4.28,0,0,0,.71-2.34,4.64,4.64,0,0,0,1.84-1.71c.21-.33.13-.6-.24-.83l1.2-.69a4.23,4.23,0,0,0,.71-2.34l1.19-.68q4.94-9.57-.87-13.23l1.94-3.09L316,80q8.24-2.59,14.64,1.45l32.85,20.7q3.25.61,16-4l.07.05A10.13,10.13,0,1,0,396,87.58c-.22-.47-.36-.88-.61-1.37a4.49,4.49,0,0,1,.46-1.81q8.92-11.88,11.56-16.05c1.43-2.82,1.77-4.46,1-4.95l-2.54-1.6,1.6-2.54a1.08,1.08,0,0,0-.38-1.68l-5-3.16c-.69-.43-1.56.2-2.63,1.89L383.8,46.44Q387.51,36,379.24,11q.74.46,9.08-2.06l1.25-2c.31-.49.12-1.31-.56-2.47l-2-1.26c-1.18-.74-5,.84-6.11,1.15s-3.14,1.31-4.4.89-2.22-2.49-3.27-3.35a9,9,0,0,0-10-.78,8.9,8.9,0,0,0-3.78,4.57c-.64,1.72-.08,3.62-.66,5.21-1.73,0-8.66.36-9.54,1.75l-.3.48c-.35.74-.24,1.29.32,1.64l.55.35,9.55-1.75.49.3q5,7.79,6.73,21.91L347.38,23.48l-2.95.26-2.05-1.3-.4-3.8L341,18a1.21,1.21,0,0,0-1.67.38l-3.17,5a1.4,1.4,0,0,0,0,1.15L311.56,61.68,307.32,59a5,5,0,0,0-5.05,2.39l-1,1.52q-3.49,5.56,1.09,8.46l-1.94,3.09q-5.81-3.66-12.31,4.91L288,80.72a4.6,4.6,0,0,0-1.74,1.69l-.16,1.33A4.44,4.44,0,0,0,284.64,85l-.17,1.33A4.67,4.67,0,0,0,282.73,88a.51.51,0,0,0,.18.79l-1.13.73a5,5,0,0,0-.81,2.36l-1.1.66q-4.49,9.94.84,13.29l-2.21,3.51q-4,6.3-3.28,10.7l-5.72,9.07ZM395.47,95a6.29,6.29,0,1,1-6.28-6.28A6.28,6.28,0,0,1,395.47,95ZM381.88,55.12l.34-.55q3,1.91,4.29-.09l6.05,3.81q-2.56,4.07,1.49,6.61a8.27,8.27,0,0,1-1,5q-3.72,2.55-6.75.65L383.72,69Q377.92,65.3,381.88,55.12Zm-3.53,31.69a14.61,14.61,0,0,1-3.49,3.53c-3.67,2.66-9,3.36-12.95.88l-2-1.26,2.21-3.5,4.54,2.86c1.85,1.16,3.84,1,6-.48q1.26-2,2.53-4c.43-.68,4.22-5.65,3.91-6.22a11.67,11.67,0,0,0-20.56-.2,6,6,0,0,0-.69,4.71c.34,1,.61.91.27,1.84a6.9,6.9,0,0,1-.79,1.25l-.48-.3c-2.22-4-2.22-7.74,0-11.25l.95-1.52c2.66-2.73,6.07-4.95,10-5.17C377.34,67.42,383.74,79,378.35,86.81ZM363.61,11.14a5.48,5.48,0,1,1,5.48,5.48A5.48,5.48,0,0,1,363.61,11.14Zm-4.13,29.1q3,1.9,4.28-.09c.88.55,3.22,1.48,3.32,2.64a2.64,2.64,0,0,1-.29,1.25c-1,2.48-1.89,5-3,7.45a66.91,66.91,0,0,1-4,7.35c-4.6,7.29-12.52,15.86-21.93,15.79.38-1,0-2,1.19-2.68l.18-.1a9.26,9.26,0,0,1,2.44-.65c4-.86,7.9-5.07,10.5-8a57.63,57.63,0,0,0,8.77-13.55,12.45,12.45,0,0,0,1.15-3.12c.51-2.79-.92-4.13-3.23-5.3ZM337.83,25.79c.64.11,1.4-.51,2.32-2L343.66,26l.86,2,9.14,5.76q-1.26,2,1.76,3.9l-.64,1-4.06-2.55q-5-2.2-7.39,1.67l-7.45,11.82-9.54-6.46ZM325.82,44l9.56,6.47-6.73,10.67c-.1,2.76.77,4.72,2.63,5.89l4.05,2.56-3.2,5.08L313.37,62.82Z" style="fill:#fcf6e4"/></g></g></svg>